<?xml version="1.0" standalone="no"?>
<!DOCTYPE svg PUBLIC "-//W3C//DTD SVG 20010904//EN"
 "http://www.w3.org/TR/2001/REC-SVG-20010904/DTD/svg10.dtd">
<svg version="1.0" xmlns="http://www.w3.org/2000/svg"
 width="740.000000pt" height="740.000000pt" viewBox="0 0 740.000000 740.000000"
 preserveAspectRatio="xMidYMid meet">
<metadata>
Created by potrace 1.11, written by Peter Selinger 2001-2013
</metadata>
<g transform="translate(0.000000,740.000000) scale(0.100000,-0.100000)"
fill="#000000" stroke="none">
<path d="M0 3698 l0 -3698 3700 0 3700 0 0 3699 0 3699 -3700 -1 -3700 -2 0
-3697z m2585 3479 c61 6 144 5 205 -2 30 -4 70 -8 88 -9 18 0 32 -6 32 -13 0
-19 13 -16 27 6 11 18 28 18 317 16 347 -2 346 -2 346 -77 l0 -38 -222 2
c-210 2 -231 0 -358 -26 -219 -45 -429 -96 -517 -125 -46 -16 -83 -25 -83 -20
0 4 -12 4 -27 0 -16 -5 -27 -13 -26 -19 2 -6 -6 -16 -17 -22 -11 -6 -20 -7
-20 -3 0 4 -4 3 -8 -3 -12 -20 -136 -82 -151 -77 -8 3 -11 1 -7 -5 3 -6 2 -13
-4 -17 -5 -3 -10 -1 -10 5 0 6 -4 8 -10 5 -6 -3 -10 4 -10 17 0 21 -4 24 -35
20 -23 -3 -39 -12 -47 -26 -6 -11 -18 -26 -27 -33 -9 -6 -13 -15 -9 -19 4 -4
14 -1 22 6 9 6 21 10 28 7 8 -4 7 -6 -4 -6 -18 -1 -26 -21 -8 -21 20 0 -3 -28
-42 -50 -23 -13 -37 -17 -33 -10 5 8 3 11 -6 8 -8 -3 -13 -10 -12 -16 2 -6
-13 -9 -38 -8 -46 4 -58 -7 -30 -26 18 -13 18 -15 -17 -38 -20 -14 -59 -44
-86 -68 -27 -23 -55 -41 -62 -38 -8 3 -13 0 -11 -7 1 -7 -4 -11 -10 -10 -7 2
-13 -4 -13 -12 0 -13 -11 -19 -31 -17 -4 1 -15 -8 -24 -18 -11 -13 -14 -20 -6
-20 7 0 9 -5 6 -11 -4 -6 -13 -8 -20 -5 -8 3 -19 -3 -27 -12 -12 -15 -11 -16
5 -3 10 8 17 9 17 3 0 -6 -9 -16 -20 -22 -11 -6 -20 -8 -20 -4 0 3 -6 1 -13
-5 -8 -6 -17 -8 -20 -4 -6 6 -11 -20 -8 -39 0 -5 -6 -8 -14 -8 -9 0 -15 -6
-13 -12 4 -19 -50 -85 -110 -134 -47 -39 -60 -44 -103 -44 l-49 0 0 38 c0 54
-10 84 -26 78 -10 -4 -14 3 -14 23 0 24 3 28 20 24 14 -4 20 0 21 13 4 50 3
71 -3 96 -4 18 -2 31 8 39 10 8 11 16 5 22 -19 19 20 164 40 151 5 -3 9 4 9
14 0 16 5 19 21 15 17 -5 20 -11 15 -34 -6 -33 9 -40 17 -8 7 25 27 16 27 -12
0 -11 -4 -17 -10 -14 -10 6 -23 -32 -19 -56 1 -8 -5 -31 -14 -51 -19 -43 -21
-54 -7 -63 13 -8 40 48 40 85 0 16 4 30 8 30 5 0 13 21 18 47 l9 46 64 13 c36
8 69 20 73 29 15 25 28 17 18 -11 -15 -39 -12 -63 8 -62 9 0 25 -3 34 -7 14
-5 20 0 29 21 6 16 11 41 11 56 1 15 7 29 13 32 8 3 11 -2 8 -13 -6 -25 55
-28 64 -4 3 10 13 26 21 35 12 15 11 21 -13 52 -25 33 -45 50 -30 26 11 -17
-34 -52 -58 -44 -12 3 -22 7 -22 8 0 0 -5 15 -11 32 l-11 30 51 1 c50 0 51 0
60 37 8 29 7 39 -4 46 -8 5 -18 6 -22 4 -16 -10 -40 26 -34 51 4 14 2 25 -3
25 -5 0 -11 -10 -14 -22 -4 -13 -13 -32 -22 -43 -14 -18 -14 -18 -9 -1 6 16 5
17 -15 6 -18 -9 -27 -8 -45 3 -28 19 -55 7 -31 -13 9 -7 14 -19 11 -26 -3 -7
2 -15 10 -18 17 -7 19 -63 2 -69 -25 -8 -47 6 -53 33 -3 15 -5 31 -3 36 1 5
-3 19 -10 32 -9 15 -9 22 -2 22 6 0 8 5 5 10 -10 16 -23 12 -37 -12 -17 -30
-56 -32 -64 -4 -4 12 -7 33 -6 48 0 15 -4 30 -9 33 -5 4 -10 -13 -10 -37 -2
-35 -3 -37 -7 -13 -4 26 -5 27 -12 10 l-8 -20 -7 20 c-3 11 -10 27 -14 35 -12
23 -5 91 10 101 28 18 44 5 47 -39 3 -37 6 -42 18 -31 8 6 15 26 15 43 1 17 3
23 6 14 2 -10 10 -15 19 -11 8 3 14 1 14 -5 0 -17 32 -23 88 -16 40 5 52 10
48 21 -3 8 -2 11 4 8 5 -3 14 4 20 15 6 11 17 19 25 18 8 -2 21 6 29 17 14 20
15 20 24 -4 9 -24 9 -24 15 6 7 34 37 47 109 46 22 0 39 5 42 13 8 22 45 16
72 -11 21 -21 29 -24 41 -14 9 8 17 9 21 3 10 -14 92 -36 122 -32 15 2 24 -2
23 -9 -2 -7 4 -10 13 -6 8 3 21 -2 29 -13 13 -17 14 -16 13 15 -1 24 5 39 23
52 34 26 52 23 68 -11 16 -38 35 -34 39 8 2 18 7 32 12 32 5 0 7 6 4 13 -6 16
39 15 59 -2 12 -10 24 -8 61 9 25 12 49 19 54 16 6 -3 13 1 16 9 4 11 11 13
23 7 10 -5 36 -7 58 -5z m1853 -8 c22 -7 37 -8 41 -2 3 6 39 10 79 9 40 -1 75
1 78 5 5 8 78 4 92 -5 5 -3 27 -8 48 -10 26 -4 44 -13 57 -31 27 -36 63 -34
72 5 7 33 14 37 33 18 9 -9 12 -8 12 5 0 16 27 24 55 17 6 -2 28 -2 50 -2 50
1 75 -23 75 -75 0 -21 5 -45 10 -53 8 -12 12 -9 22 18 7 17 18 32 26 32 7 0
10 -5 6 -12 -5 -8 -2 -9 10 -5 10 4 24 7 32 7 8 0 14 7 14 16 0 13 4 12 18 -5
10 -13 32 -24 55 -27 33 -4 38 -1 48 23 6 15 8 35 6 45 -6 20 13 24 31 6 9 -9
12 -8 12 4 0 33 64 31 75 -2 3 -10 15 -30 26 -44 17 -22 29 -26 69 -26 27 0
52 -4 55 -10 3 -5 19 -9 35 -7 16 1 29 -2 29 -8 0 -5 -21 -10 -47 -10 -42 0
-47 -2 -43 -20 2 -11 4 -42 6 -70 1 -27 6 -68 12 -90 17 -68 -6 -88 -44 -37
-13 18 -19 39 -17 64 3 30 -1 38 -17 43 -11 4 -23 5 -26 2 -8 -9 -11 -57 -2
-57 5 0 6 -6 3 -13 -2 -7 9 -29 26 -49 27 -32 36 -36 64 -31 30 5 33 2 43 -32
7 -20 9 -43 6 -51 -8 -21 -53 -30 -64 -13 -7 12 -9 12 -9 0 0 -10 -5 -10 -25
3 l-25 16 0 -50 c0 -28 4 -60 10 -70 5 -10 11 -32 12 -49 1 -17 5 -31 9 -31 4
0 9 -7 13 -15 4 -12 -1 -11 -22 4 -75 52 -275 173 -332 201 -155 78 -417 162
-793 256 -92 23 -373 62 -492 68 -60 4 -140 9 -177 12 l-67 6 11 26 c22 56 43
92 55 96 7 3 72 5 145 5 73 0 140 0 148 0 44 1 265 14 268 16 6 5 63 -4 100
-16z m2147 -75 c7 -52 2 -64 -29 -64 -44 0 -60 103 -18 113 30 6 40 -4 47 -49z
m-171 -7 c27 -26 46 -53 46 -65 0 -12 5 -22 11 -22 5 0 7 -4 4 -10 -3 -5 -15
-10 -26 -10 -23 0 -24 -7 -3 -55 8 -21 13 -43 10 -50 -3 -8 2 -19 10 -25 8 -7
14 -22 14 -34 0 -11 7 -33 14 -48 15 -29 11 -98 -6 -98 -5 0 -6 -5 -2 -11 3
-6 0 -15 -7 -20 -11 -7 -11 -9 -1 -9 7 0 11 -4 8 -9 -9 -14 -56 0 -81 25 -13
13 -21 24 -18 24 4 0 2 5 -4 11 -6 6 -9 18 -6 25 6 17 -36 34 -85 34 l-37 0
24 -19 24 -19 -24 -12 c-14 -8 -19 -15 -11 -18 6 -2 9 -8 6 -13 -3 -6 -11 -5
-20 2 -8 6 -27 9 -43 6 -24 -5 -31 -2 -36 14 -4 12 -2 26 4 32 6 6 11 25 11
43 0 18 6 34 14 37 18 7 11 107 -11 151 -20 38 -5 53 36 36 48 -20 61 -9 61
54 0 50 2 56 33 74 17 11 35 21 38 21 4 1 28 -19 53 -42z m-5072 -32 c0 -5 -5
-11 -11 -13 -6 -2 -11 4 -11 13 0 9 5 15 11 13 6 -2 11 -8 11 -13z m4848 -26
c0 -5 -4 -9 -10 -9 -5 0 -10 7 -10 16 0 8 5 12 10 9 6 -3 10 -10 10 -16z m470
1 c0 -21 -15 -27 -25 -10 -7 12 2 30 16 30 5 0 9 -9 9 -20z m-445 0 c3 -5 1
-10 -4 -10 -6 0 -11 5 -11 10 0 6 2 10 4 10 3 0 8 -4 11 -10z m-5528 -34 c-4
-10 -16 -15 -32 -14 -30 3 -33 18 -5 25 11 3 20 10 20 16 0 8 3 8 11 0 7 -7 9
-19 6 -27z m5983 -26 c0 -35 -25 -41 -33 -8 -7 26 -1 38 19 38 9 0 14 -11 14
-30z m-5396 3 c4 -16 2 -61 -4 -73 -1 -3 -3 -14 -4 -25 -1 -14 -8 -20 -26 -20
-21 0 -25 5 -25 30 0 17 6 38 13 47 8 9 11 22 7 27 -3 6 -3 16 0 21 10 16 33
12 39 -7z m2341 -3 c4 -6 12 -10 18 -9 7 1 56 1 109 0 68 -1 101 -5 110 -15
11 -10 30 -12 74 -7 57 6 96 2 214 -21 30 -5 91 -14 135 -18 44 -4 107 -14
140 -23 33 -8 89 -20 125 -27 36 -6 74 -17 85 -24 11 -7 48 -19 83 -26 34 -8
62 -17 62 -20 0 -4 15 -7 33 -8 30 -1 178 -59 302 -117 28 -13 65 -29 83 -36
17 -6 32 -15 32 -20 0 -4 15 -11 34 -15 19 -3 42 -15 52 -25 9 -10 25 -19 34
-19 9 0 20 -3 24 -7 3 -4 12 -8 20 -9 21 -3 88 -49 141 -98 28 -25 55 -46 61
-46 6 0 30 -13 52 -30 23 -16 46 -30 52 -30 22 0 8 -21 -32 -47 -145 -91 -305
-186 -314 -186 -6 0 -44 21 -85 48 -41 26 -99 62 -129 78 -30 17 -88 50 -128
75 -165 99 -407 199 -702 290 -156 49 -362 79 -595 88 -155 6 -204 4 -350 -15
-381 -50 -771 -144 -937 -227 -162 -80 -391 -284 -526 -467 -24 -31 -49 -57
-56 -57 -8 0 -56 17 -107 39 -52 21 -133 50 -181 65 -48 14 -90 31 -93 36 -4
6 7 23 24 39 17 16 31 32 31 36 0 7 12 22 83 109 18 21 46 47 62 57 17 11 26
19 21 19 -16 0 45 47 90 69 24 13 44 27 44 33 0 5 7 8 14 5 11 -4 13 -1 9 10
-4 11 -2 14 5 9 6 -3 16 2 21 13 6 10 22 22 36 25 14 4 25 11 25 16 0 6 23 21
50 33 28 13 47 26 44 30 -8 8 77 48 87 41 4 -2 10 4 13 13 3 10 35 34 70 53
36 19 63 37 60 41 -6 11 24 19 43 12 12 -5 14 -3 8 7 -6 10 -4 12 8 7 10 -4
14 -2 11 7 -3 7 1 13 8 13 22 0 88 31 88 41 0 6 12 13 28 18 33 9 34 9 52 17
18 8 167 36 232 44 26 3 45 9 42 14 -4 8 5 11 70 24 11 2 28 -1 39 -7 16 -8
19 -7 14 4 -4 12 12 17 71 27 43 7 98 13 124 14 25 1 44 5 41 9 -2 5 1 8 6 8
6 0 11 -4 11 -8 0 -5 30 -3 68 5 37 7 85 15 106 18 21 2 41 7 44 10 10 10 251
5 257 -5z m578 3 c-7 -2 -19 -2 -25 0 -7 3 -2 5 12 5 14 0 19 -2 13 -5z m1822
-3 c3 -5 1 -10 -4 -10 -6 0 -11 5 -11 10 0 6 2 10 4 10 3 0 8 -4 11 -10z m-68
-6 c-3 -3 -12 -4 -19 -1 -8 3 -5 6 6 6 11 1 17 -2 13 -5z m-3220 -30 c-3 -3
-12 -4 -19 -1 -8 3 -5 6 6 6 11 1 17 -2 13 -5z m-2505 -36 c-7 -7 -12 -8 -12
-2 0 14 12 26 19 19 2 -3 -1 -11 -7 -17z m6385 -50 c-3 -8 -6 -5 -6 6 -1 11 2
17 5 13 3 -3 4 -12 1 -19z m-6410 -20 c-3 -8 -6 -5 -6 6 -1 11 2 17 5 13 3 -3
4 -12 1 -19z m1153 2 c0 -5 -4 -10 -9 -10 -6 0 -13 5 -16 10 -3 6 1 10 9 10 9
0 16 -4 16 -10z m-826 -52 c7 -31 -6 -37 -30 -14 -17 18 -18 28 -2 44 14 14
23 6 32 -30z m79 25 c-7 -2 -19 -2 -25 0 -7 3 -2 5 12 5 14 0 19 -2 13 -5z
m-383 -23 c0 -5 -4 -10 -10 -10 -5 0 -10 5 -10 10 0 6 5 10 10 10 6 0 10 -4
10 -10z m1181 -37 c28 -8 23 -20 -10 -25 -26 -4 -30 -1 -33 24 -3 15 0 32 6
38 8 8 12 5 14 -11 2 -12 12 -24 23 -26z m-1156 -13 c3 -5 -1 -10 -9 -10 -9 0
-16 5 -16 10 0 6 4 10 9 10 6 0 13 -4 16 -10z m10 -30 c3 -5 1 -10 -4 -10 -6
0 -11 5 -11 10 0 6 2 10 4 10 3 0 8 -4 11 -10z m1321 -21 c16 -18 16 -21 2
-36 -20 -19 -50 -11 -42 12 4 8 -1 17 -10 21 -9 3 -16 12 -16 19 0 18 45 7 66
-16z m-251 12 c3 -5 1 -12 -4 -15 -5 -3 -11 1 -15 9 -6 16 9 21 19 6z m-87
-75 c-2 -15 -7 -26 -13 -26 -10 0 -16 48 -7 63 8 17 24 -11 20 -37z m-991 20
c-7 -18 17 -28 32 -13 19 19 22 1 12 -64 -10 -62 -2 -97 20 -83 5 3 9 -2 9
-10 0 -9 -6 -13 -14 -10 -9 3 -16 -4 -20 -21 -4 -15 -17 -30 -31 -35 -29 -11
-32 -18 -8 -16 28 2 25 -43 -3 -56 -38 -18 -54 -4 -54 46 0 25 5 48 10 51 6 3
10 11 10 16 0 6 -4 7 -10 4 -6 -3 -10 5 -10 19 0 14 4 27 9 31 6 3 8 15 6 26
-5 24 14 69 28 69 6 0 2 9 -8 20 -16 18 -16 20 -2 20 10 0 17 5 17 10 0 6 3
10 6 10 3 0 4 -6 1 -14z m310 -1 c24 2 45 -1 48 -6 4 -5 -1 -9 -10 -9 -11 0
-14 -7 -11 -26 4 -19 1 -24 -12 -22 -9 1 -28 -4 -41 -11 -34 -19 -45 0 -42 68
1 17 4 21 14 13 6 -5 31 -8 54 -7z m3186 -12 c-13 -2 -35 -2 -50 0 -16 2 -5 4
22 4 28 0 40 -2 28 -4z m120 -10 c-7 -2 -21 -2 -30 0 -10 3 -4 5 12 5 17 0 24
-2 18 -5z m-3305 -98 c2 -16 1 -17 -7 -6 -7 11 -10 8 -13 -15 -2 -21 -9 -30
-25 -32 -24 -4 -38 25 -28 59 9 28 68 24 73 -6z m2544 -57 c-6 -6 -15 -8 -19
-3 -5 4 -2 10 5 12 6 3 9 10 6 16 -5 8 -2 8 7 0 10 -10 10 -16 1 -25z m1273 2
c3 -5 -1 -10 -10 -10 -9 0 -13 5 -10 10 3 6 8 10 10 10 2 0 7 -4 10 -10z
m-1404 -43 c-16 -16 -26 0 -10 19 9 11 15 12 17 4 2 -6 -1 -17 -7 -23z m157
-30 c9 3 14 3 10 -2 -4 -4 -25 -11 -47 -15 -39 -7 -39 -7 -43 27 -2 18 0 33 4
33 4 0 8 -9 8 -20 0 -29 17 -24 25 8 l8 27 9 -32 c6 -25 12 -31 26 -26z m377
33 c-10 -11 -21 -17 -24 -14 -3 3 3 12 13 20 28 20 32 17 11 -6z m-485 -27 c0
-7 -4 -13 -9 -13 -5 0 -8 12 -8 26 0 18 2 22 8 13 5 -8 9 -20 9 -26z m-1820 8
c0 -6 -4 -13 -10 -16 -5 -3 -10 1 -10 9 0 9 5 16 10 16 6 0 10 -4 10 -9z
m3010 -1 c4 0 8 -11 8 -24 0 -26 -26 -39 -49 -25 -8 5 -10 9 -4 9 5 0 4 5 -3
12 -7 7 -12 17 -12 23 0 5 5 3 10 -5 8 -13 10 -12 10 4 0 12 5 16 16 12 9 -3
19 -6 24 -6z m-1379 -10 c5 0 9 -9 9 -19 0 -12 10 -21 27 -26 23 -5 32 -1 55
27 21 25 28 29 28 15 0 -10 5 -15 10 -12 6 3 10 1 10 -6 0 -6 -8 -9 -19 -6
-12 3 -27 -4 -40 -19 -12 -13 -25 -24 -30 -24 -5 0 -3 -14 6 -31 8 -16 13 -33
10 -35 -3 -3 -8 3 -11 14 -12 37 -68 51 -145 38 -37 -7 -47 -5 -58 10 -7 10
-13 25 -12 33 0 9 5 4 10 -10 8 -22 15 -25 46 -22 20 1 41 7 46 12 6 6 19 6
33 1 15 -6 24 -6 24 0 0 6 -6 10 -14 10 -8 0 -16 13 -18 30 -4 24 -1 30 9 25
8 -3 19 -5 24 -5z m1460 -29 c12 -7 18 -8 14 -2 -3 6 -1 11 4 11 6 0 11 -7 11
-15 0 -13 4 -14 20 -5 17 9 20 8 20 -10 0 -11 -6 -22 -12 -24 -7 -2 -26 -7
-43 -12 -23 -8 -33 -6 -45 6 -8 9 -12 11 -7 4 5 -8 -1 -10 -19 -6 -21 4 -25 2
-19 -9 7 -11 5 -11 -9 1 -17 14 -17 15 3 24 12 5 21 13 21 18 0 16 35 57 38
44 1 -6 12 -17 23 -25z m-874 23 c-3 -3 -12 -4 -19 -1 -8 3 -5 6 6 6 11 1 17
-2 13 -5z m113 -14 c-8 -5 -19 -10 -25 -10 -5 0 -3 5 5 10 8 5 20 10 25 10 6
0 3 -5 -5 -10z m-510 -30 c0 -5 -10 -10 -22 -9 -22 0 -22 1 -3 9 11 5 21 9 23
9 1 1 2 -3 2 -9z m70 2 c0 -5 11 -15 25 -22 14 -7 25 -20 25 -27 0 -11 -4 -11
-21 -2 -13 6 -38 8 -62 5 l-40 -7 29 29 c30 31 44 38 44 24z m100 -6 c-6 -6
-18 -5 -32 2 -22 10 -21 11 9 9 21 -1 29 -5 23 -11z m290 4 c0 -5 -5 -10 -11
-10 -5 0 -7 5 -4 10 3 6 8 10 11 10 2 0 4 -4 4 -10z m1057 -12 c-3 -8 -6 -5
-6 6 -1 11 2 17 5 13 3 -3 4 -12 1 -19z m70 -4 c-3 -3 -12 -4 -19 -1 -8 3 -5
6 6 6 11 1 17 -2 13 -5z m116 -1 c-7 -2 -19 -2 -25 0 -7 3 -2 5 12 5 14 0 19
-2 13 -5z m-1283 -48 c-4 -22 -8 -34 -9 -27 0 7 -5 10 -11 7 -5 -3 -10 1 -10
10 0 9 4 14 9 11 5 -3 12 6 15 20 11 40 15 24 6 -21z m963 38 c-7 -2 -19 -2
-25 0 -7 3 -2 5 12 5 14 0 19 -2 13 -5z m-3309 -28 c-6 -16 -24 -21 -24 -7 0
11 11 22 21 22 5 0 6 -7 3 -15z m3490 3 c-3 -4 -1 -8 5 -8 5 0 11 5 13 10 4
13 68 1 68 -12 0 -6 -6 -8 -14 -5 -9 4 -16 -3 -20 -19 -8 -30 -21 -30 -51 1
-28 27 -32 42 -10 42 8 0 12 -4 9 -9z m-1558 -84 c-3 -8 -11 -14 -18 -14 -9 0
-9 3 0 12 7 7 13 26 13 43 l2 30 4 -28 c3 -16 2 -35 -1 -43z m-2806 46 c8 -5
11 -10 5 -10 -5 0 -17 5 -25 10 -8 5 -10 10 -5 10 6 0 17 -5 25 -10z m2480 -8
c0 -4 -9 -8 -20 -9 -11 -1 -18 2 -15 8 7 11 35 12 35 1z m-95 -31 c-6 -5 -25
10 -25 20 0 5 6 4 14 -3 8 -7 12 -15 11 -17z m278 1 c-3 -12 -9 -22 -14 -22
-5 0 -3 11 3 25 13 30 20 28 11 -3z m-164 -6 c10 -12 8 -13 -8 -9 -12 3 -18 9
-15 14 7 12 10 11 23 -5z m4361 4 c0 -5 -2 -10 -4 -10 -3 0 -8 5 -11 10 -3 6
-1 10 4 10 6 0 11 -4 11 -10z m-5977 -15 c4 -8 2 -17 -4 -21 -6 -3 -6 -10 -1
-17 16 -20 2 -77 -18 -77 -23 0 -32 43 -14 69 9 13 10 21 3 23 -14 5 0 38 16
38 7 0 15 -7 18 -15z m1387 -11 c0 -2 -15 -4 -32 -3 -27 0 -29 2 -13 8 18 8
45 4 45 -5z m-1588 -26 c-6 -6 -16 -7 -22 -3 -9 6 -9 9 1 16 17 10 34 0 21
-13z m1442 6 c3 -8 2 -12 -4 -9 -6 3 -10 10 -10 16 0 14 7 11 14 -7z m163 -6
c-3 -8 -6 -5 -6 6 -1 11 2 17 5 13 3 -3 4 -12 1 -19z m493 7 c0 -17 -25 -20
-35 -5 -3 6 1 7 9 4 9 -3 16 -1 16 5 0 6 2 11 5 11 3 0 5 -7 5 -15z m-229 -13
c-7 -2 -18 1 -23 6 -8 8 -4 9 13 5 13 -4 18 -8 10 -11z m504 8 c-3 -5 -2 -10
4 -10 6 0 8 -6 5 -14 -5 -12 -9 -11 -25 5 -24 24 -24 29 2 29 11 0 17 -4 14
-10z m165 -6 c0 -2 -9 -4 -20 -4 -11 0 -20 4 -20 9 0 5 9 7 20 4 11 -3 20 -7
20 -9z m25 7 c3 -5 1 -12 -5 -16 -5 -3 -10 1 -10 9 0 18 6 21 15 7z m230 -1
c3 -5 1 -10 -4 -10 -6 0 -11 5 -11 10 0 6 2 10 4 10 3 0 8 -4 11 -10z m-825
-25 c0 -20 -5 -25 -25 -25 -14 0 -25 5 -25 10 0 6 3 9 8 9 20 -3 32 2 32 16 0
8 2 15 5 15 3 0 5 -11 5 -25z m870 15 c0 -5 -2 -10 -4 -10 -3 0 -8 5 -11 10
-3 6 -1 10 4 10 6 0 11 -4 11 -10z m-2850 -26 c0 -8 -4 -12 -10 -9 -5 3 -10
-2 -11 -12 0 -16 -1 -16 -8 2 -5 12 -4 23 3 27 17 12 26 9 26 -8z m1805 -24
c14 -26 20 -29 66 -28 28 0 56 -5 62 -11 9 -9 -33 -10 -120 -2 -7 1 -13 9 -13
20 0 10 -7 24 -15 31 -8 7 -15 17 -15 22 0 16 19 -2 35 -32z m62 18 c-3 -8 -6
-5 -6 6 -1 11 2 17 5 13 3 -3 4 -12 1 -19z m561 8 c-7 -8 -15 -12 -17 -11 -5
6 10 25 20 25 5 0 4 -6 -3 -14z m-360 -13 c6 -2 12 2 12 8 0 6 6 9 13 7 6 -3
15 -23 18 -47 4 -28 2 -38 -5 -31 -5 5 -19 10 -30 10 -17 0 -18 2 -6 9 8 6 17
8 21 5 6 -3 5 20 0 33 -1 1 -14 -2 -30 -7 -25 -7 -28 -6 -23 12 2 11 8 16 11
11 3 -4 12 -9 19 -10z m429 11 c-3 -3 -12 -4 -19 -1 -8 3 -5 6 6 6 11 1 17 -2
13 -5z m-899 -17 c-7 -8 -21 -12 -31 -9 -15 4 -16 7 -5 13 7 5 21 9 31 9 14 0
15 -3 5 -13z m252 3 c0 -5 -4 -10 -10 -10 -5 0 -10 5 -10 10 0 6 5 10 10 10 6
0 10 -4 10 -10z m747 4 c-3 -3 -12 -4 -19 -1 -8 3 -5 6 6 6 11 1 17 -2 13 -5z
m257 -9 c3 -8 1 -15 -4 -15 -6 0 -10 7 -10 15 0 8 2 15 4 15 2 0 6 -7 10 -15z
m126 -16 c-10 -18 -9 -20 7 -17 10 2 17 11 15 21 -2 9 2 17 9 17 6 0 9 -8 6
-20 -3 -13 0 -20 9 -20 8 0 14 -4 14 -9 0 -5 -8 -8 -17 -6 -10 1 -28 -1 -40
-6 -18 -7 -21 -4 -19 15 3 24 14 46 22 46 3 0 0 -9 -6 -21z m3150 3 c0 -13
-12 -22 -22 -16 -10 6 -1 24 13 24 5 0 9 -4 9 -8z m-3706 -18 c3 -8 2 -12 -4
-9 -6 3 -10 10 -10 16 0 14 7 11 14 -7z m300 8 c2 -4 0 -14 -6 -22 -8 -12 -9
-12 -5 2 3 9 1 19 -6 22 -9 3 -9 5 0 5 6 1 14 -3 17 -7z m495 -24 c0 -28 -2
-30 -9 -13 -12 28 -12 45 0 45 6 0 10 -15 9 -32z m98 -7 c-6 -2 -13 1 -15 7
-2 6 -11 8 -20 5 -13 -4 -12 -2 3 10 17 13 21 13 31 -2 9 -12 10 -17 1 -20z
m-727 25 c0 -3 -4 -8 -10 -11 -5 -3 -10 -1 -10 4 0 6 5 11 10 11 6 0 10 -2 10
-4z m-1192 -22 c-13 -13 -21 -14 -45 -5 -25 10 -25 11 -3 6 14 -2 32 0 40 5
23 15 26 12 8 -6z m2246 -4 c-22 -9 -29 -6 -20 9 4 6 14 7 23 4 15 -6 14 -7
-3 -13z m266 0 c0 -5 -5 -10 -11 -10 -5 0 -7 5 -4 10 3 6 8 10 11 10 2 0 4 -4
4 -10z m-710 -15 c0 -8 -7 -15 -15 -15 -13 0 -14 3 -3 15 16 18 18 18 18 0z
m-1923 -11 c-3 -3 -12 -4 -19 -1 -8 3 -5 6 6 6 11 1 17 -2 13 -5z m1406 -1
c-7 -2 -19 -2 -25 0 -7 3 -2 5 12 5 14 0 19 -2 13 -5z m442 -3 c25 -11 -1 -11
-35 0 -20 6 -21 8 -5 8 11 0 29 -3 40 -8z m-195 -10 c-8 -5 -19 -10 -25 -10
-5 0 -3 5 5 10 8 5 20 10 25 10 6 0 3 -5 -5 -10z m54 -29 c-5 -6 -34 20 -34
30 0 5 8 1 18 -8 10 -10 17 -20 16 -22z m-601 9 c-5 -19 -23 -29 -23 -12 0 7
20 32 26 32 1 0 0 -9 -3 -20z m484 -2 c-3 -8 -6 -5 -6 6 -1 11 2 17 5 13 3 -3
4 -12 1 -19z m679 13 c-6 -9 -46 -22 -46 -15 0 3 10 9 23 14 29 11 29 11 23 1z
m-799 -23 c-3 -8 -6 -5 -6 6 -1 11 2 17 5 13 3 -3 4 -12 1 -19z m1502 18 c-2
-2 -15 -9 -29 -15 -24 -11 -24 -11 -6 3 16 13 49 24 35 12z m-2549 -21 c0 -10
-41 -11 -49 -1 -8 10 -3 11 19 8 17 -2 30 -5 30 -7z m458 -10 c-3 -3 -9 2 -12
12 -6 14 -5 15 5 6 7 -7 10 -15 7 -18z m548 14 c4 -8 9 -7 16 2 8 11 9 11 5
-1 -2 -8 -12 -14 -21 -14 -10 1 -16 -6 -16 -20 0 -14 3 -17 8 -8 5 7 16 10 26
6 13 -5 14 -9 5 -20 -6 -8 -15 -12 -19 -9 -15 9 -39 -6 -33 -21 3 -8 0 -14 -6
-14 -6 0 -10 3 -10 8 4 22 -3 31 -18 25 -11 -4 -14 -3 -9 6 4 7 16 9 27 6 14
-5 20 -2 18 7 -6 47 9 75 27 47z m330 -16 c-10 -10 -19 5 -10 18 6 11 8 11 12
0 2 -7 1 -15 -2 -18z m96 12 c18 0 19 -15 1 -15 -12 0 -24 7 -27 16 -4 10 -2
13 7 7 6 -4 15 -8 19 -8z m-685 -1 c-3 -3 -12 -4 -19 -1 -8 3 -5 6 6 6 11 1
17 -2 13 -5z m208 -3 c3 -5 1 -12 -5 -16 -5 -3 -10 1 -10 9 0 18 6 21 15 7z
m262 3 c-3 -3 -12 -4 -19 -1 -8 3 -5 6 6 6 11 1 17 -2 13 -5z m1006 -1 c-7 -2
-21 -2 -30 0 -10 3 -4 5 12 5 17 0 24 -2 18 -5z m144 1 c-3 -3 -12 -4 -19 -1
-8 3 -5 6 6 6 11 1 17 -2 13 -5z m118 -4 c3 -5 1 -10 -4 -10 -6 0 -11 5 -11
10 0 6 2 10 4 10 3 0 8 -4 11 -10z m-2638 -6 c-3 -3 -12 -4 -19 -1 -8 3 -5 6
6 6 11 1 17 -2 13 -5z m1538 -14 c-3 -4 -24 -11 -48 -15 -23 -4 -53 -9 -67
-12 -19 -3 -22 -1 -14 7 7 7 31 13 53 14 23 1 47 8 53 14 12 12 32 6 23 -8z
m-742 -11 c-8 -8 -13 -7 -18 2 -5 8 -4 10 3 5 7 -4 12 -2 12 5 0 7 3 9 7 6 4
-4 2 -12 -4 -18z m-426 5 c-3 -3 -12 -4 -19 -1 -8 3 -5 6 6 6 11 1 17 -2 13
-5z m-320 -10 c-3 -3 -12 -4 -19 -1 -8 3 -5 6 6 6 11 1 17 -2 13 -5z m108 -4
c3 -5 1 -10 -4 -10 -6 0 -11 5 -11 10 0 6 2 10 4 10 3 0 8 -4 11 -10z m433
-29 c1 -16 -1 -32 -5 -34 -5 -3 -8 10 -9 29 -1 42 11 45 14 5z m315 8 c4 -16
3 -18 -9 -8 -7 6 -11 15 -8 20 8 13 11 11 17 -12z m1287 10 c0 -5 4 -8 9 -4 5
3 12 1 16 -5 9 -15 -27 -11 -49 5 -19 15 -19 15 2 15 12 0 22 -5 22 -11z m480
-3 c0 -2 -20 -20 -45 -40 -27 -23 -42 -30 -38 -20 5 13 3 15 -8 8 -21 -13 -69
-13 -69 0 0 6 -5 4 -10 -4 -6 -9 -10 -10 -10 -3 0 17 17 25 26 12 4 -8 9 -7
15 2 7 11 11 11 17 2 5 -8 13 -9 22 -3 8 6 11 10 5 10 -13 0 17 20 30 20 6 0
3 -4 -5 -10 -8 -5 -11 -13 -6 -17 4 -4 13 -1 19 8 14 19 57 45 57 35z m-3030
-20 c0 -7 -11 -16 -24 -18 -28 -6 -26 18 2 25 10 3 18 5 20 6 1 0 2 -5 2 -13z
m552 -18 c-7 -7 -10 -5 -7 8 5 29 6 30 12 16 3 -8 1 -18 -5 -24z m603 20 c14
-6 25 -16 25 -22 0 -6 -5 -5 -12 2 -18 18 -38 15 -38 -5 0 -16 2 -16 11 -3 7
10 9 11 7 2 -2 -8 -6 -12 -9 -10 -3 2 -14 -4 -25 -12 -17 -14 -18 -13 -7 1 7
9 10 19 7 22 -7 6 2 37 10 37 3 0 17 -5 31 -12z m431 -36 c6 -23 18 -41 34
-49 22 -11 23 -13 5 -13 -12 0 -26 5 -32 11 -18 18 -51 1 -55 -29 -2 -20 -11
-29 -33 -35 -52 -16 -95 -36 -95 -46 0 -5 13 -23 29 -40 l30 -32 -25 -11 c-13
-6 -24 -19 -24 -29 0 -9 -7 -20 -16 -23 -24 -9 -32 3 -11 15 9 6 17 17 17 24
0 8 5 15 10 15 6 0 10 7 10 15 0 8 -8 15 -18 15 -20 0 -41 -37 -43 -73 0 -12
-3 -17 -5 -11 -2 6 -19 9 -37 7 l-32 -2 31 10 c25 9 34 20 46 60 9 27 12 49 7
49 -5 0 -9 6 -9 14 0 8 -13 23 -30 33 -16 9 -30 21 -30 26 0 4 -5 5 -12 1 -7
-4 -8 -3 -4 5 10 15 -15 71 -31 71 -7 0 -13 -5 -13 -11 0 -5 5 -7 10 -4 6 3
10 1 10 -4 0 -6 -4 -11 -10 -11 -16 0 -12 -30 5 -36 8 -4 15 -13 15 -21 0 -8
5 -11 10 -8 6 3 10 2 10 -3 0 -5 -17 -14 -39 -20 -60 -18 -75 -50 -52 -107 14
-34 27 -45 57 -45 12 0 25 -7 28 -16 4 -12 2 -15 -9 -10 -8 3 -15 1 -15 -4 0
-6 -9 -10 -20 -10 -11 0 -20 4 -20 8 0 12 -93 32 -143 32 -48 -1 -83 -24 -92
-63 -4 -16 -17 -29 -36 -36 -31 -11 -32 -10 -23 13 4 11 10 13 18 7 9 -7 15
-2 23 19 9 24 9 30 -2 30 -8 0 -18 8 -24 18 -8 14 -12 15 -23 3 -8 -9 -9 -11
-1 -7 16 9 37 -30 21 -40 -6 -4 -8 -3 -4 4 3 6 1 14 -5 18 -6 3 -14 2 -18 -5
-11 -17 -126 -26 -136 -11 -6 10 -2 12 13 8 12 -4 25 -2 28 3 3 5 -9 9 -25 9
-17 0 -31 5 -31 10 0 6 -10 10 -22 10 -17 0 -19 -3 -10 -9 11 -6 10 -10 -4
-15 -11 -4 -20 -2 -22 3 -2 6 -11 11 -19 11 -10 0 -13 -6 -9 -16 3 -9 6 -21 6
-27 0 -7 5 -6 11 3 8 11 9 8 5 -17 -3 -20 -1 -33 7 -37 7 -2 2 -5 -10 -5 -18
-1 -22 4 -21 30 1 38 -23 59 -60 53 -38 -7 -53 -31 -46 -71 4 -23 2 -33 -6
-33 -7 0 -10 7 -6 16 5 12 2 15 -11 10 -10 -4 -14 -4 -11 0 4 4 3 15 -3 25 -7
14 -7 19 2 17 7 -2 15 5 17 15 3 13 -3 17 -25 17 -15 0 -33 -4 -39 -8 -15 -10
-25 -40 -15 -47 11 -6 2 -47 -13 -57 -6 -4 -18 -7 -26 -7 -8 0 -5 4 8 9 23 10
32 35 10 27 -7 -2 -23 0 -35 4 -16 6 -22 5 -20 -4 1 -7 -5 -12 -13 -12 -8 0
-19 -3 -25 -6 -5 -4 -19 2 -29 12 -19 19 -19 19 12 13 32 -6 32 -6 25 26 -5
26 -3 32 8 28 8 -3 13 -13 12 -23 -1 -13 5 -16 23 -12 13 2 25 -1 28 -7 2 -6
5 -2 5 10 1 30 54 76 82 72 13 -2 33 5 43 14 11 10 33 18 48 18 74 0 117 57
85 112 -9 15 -14 28 -12 28 2 0 11 3 20 6 9 4 15 3 14 -2 -4 -25 2 -45 13 -38
8 5 9 2 4 -12 -5 -10 -9 -25 -10 -33 -1 -16 -38 -56 -58 -64 -7 -3 17 -6 55
-8 37 -1 73 -2 80 -3 6 -1 11 5 9 12 -1 6 5 12 13 12 8 0 14 -5 13 -12 -2 -8
10 -13 29 -13 18 -1 30 1 27 4 -5 6 -10 7 -35 10 -7 1 -9 11 -5 27 6 22 4 25
-14 19 -16 -5 -19 -3 -13 11 5 14 2 16 -15 12 -12 -4 -20 -2 -16 3 10 17 49 8
67 -16 10 -14 13 -25 7 -25 -5 0 -10 -4 -10 -10 0 -5 10 -9 23 -9 12 0 88 -2
170 -5 81 -3 147 -4 147 -2 0 13 -13 35 -19 32 -3 -2 -7 12 -9 31 -2 30 4 42
33 70 34 33 42 52 29 66 -11 11 -10 87 1 87 6 -1 26 -10 45 -21 19 -11 27 -18
18 -15 -15 4 -14 1 3 -29 11 -19 29 -37 40 -40 10 -4 19 -11 19 -16 0 -12 25
-12 48 0 9 6 34 13 55 16 45 7 47 19 7 40 -37 19 -49 19 -72 -2 -19 -17 -20
-16 -38 7 -13 18 -16 29 -9 42 11 20 59 21 59 2 0 -16 34 -28 38 -15 2 6 8 9
12 6 5 -3 14 4 20 15 9 16 13 18 24 8 7 -7 11 -19 9 -25 -3 -8 3 -13 15 -13
12 0 23 9 27 20 8 24 -1 40 -21 40 -8 0 -13 4 -10 9 13 20 43 -2 52 -37z
m1021 36 c-2 -7 8 -19 22 -26 14 -7 18 -10 8 -7 -10 3 -25 5 -33 5 -8 0 -14 9
-14 20 0 11 5 20 11 20 6 0 9 -6 6 -12z m61 -6 c2 -6 -5 -8 -17 -5 -12 3 -21
9 -21 13 0 12 33 5 38 -8z m168 3 c17 -14 18 -15 0 -9 -10 4 -21 1 -26 -7 -12
-18 -22 -7 -14 15 8 20 15 20 40 1z m54 11 c0 -3 -4 -8 -10 -11 -5 -3 -10 -1
-10 4 0 6 5 11 10 11 6 0 10 -2 10 -4z m-2300 -10 c0 -3 -4 -8 -10 -11 -5 -3
-10 -1 -10 4 0 6 5 11 10 11 6 0 10 -2 10 -4z m2125 -6 c3 -5 1 -10 -4 -10 -6
0 -11 5 -11 10 0 6 2 10 4 10 3 0 8 -4 11 -10z m57 3 c-6 -2 -9 -10 -6 -15 4
-7 2 -8 -4 -4 -6 3 -15 -2 -21 -11 -6 -11 -11 -13 -11 -5 0 18 22 41 40 41 10
0 11 -2 2 -6z m1369 -5 c13 -6 49 -47 79 -90 30 -43 61 -86 69 -94 11 -13 11
-17 -5 -29 -46 -35 -162 -27 -269 17 -64 27 -80 41 -70 65 5 10 8 21 7 25 -1
3 12 12 28 20 17 7 30 19 30 26 0 11 84 72 100 72 3 0 17 -5 31 -12z m-4013
-24 c-7 -15 -14 -21 -16 -15 -2 7 2 18 8 26 18 22 21 18 8 -11z m85 19 c-7 -2
-19 -2 -25 0 -7 3 -2 5 12 5 14 0 19 -2 13 -5z m697 -7 c0 -2 -7 -7 -16 -10
-8 -3 -12 -2 -9 4 6 10 25 14 25 6z m780 -6 c0 -5 -5 -10 -11 -10 -5 0 -7 5
-4 10 3 6 8 10 11 10 2 0 4 -4 4 -10z m-1501 -13 c-14 -15 -49 -20 -49 -7 0 7
12 12 53 19 4 0 2 -5 -4 -12z m2171 3 c0 -5 -8 -10 -17 -10 -15 0 -16 2 -3 10
19 12 20 12 20 0z m458 -10 c-7 -10 -15 -16 -18 -12 -3 4 -9 11 -15 15 -6 5
-3 7 7 3 10 -3 20 -1 23 4 4 6 8 10 11 10 2 0 -1 -9 -8 -20z m-4196 -9 c0 -9
1 -22 1 -29 -1 -7 11 -15 26 -19 14 -3 29 -11 33 -17 8 -12 31 41 23 54 -3 4
2 11 11 14 26 10 32 7 27 -14 -3 -11 -9 -20 -13 -20 -5 0 -7 -8 -5 -17 1 -10
9 -17 19 -15 19 3 21 -9 4 -26 -9 -9 -7 -12 9 -12 24 0 40 16 22 22 -8 3 -9
15 -4 37 5 25 10 30 16 20 5 -8 9 -10 9 -5 0 5 6 3 14 -3 24 -20 31 -89 12
-110 -15 -17 -15 -19 -1 -25 13 -4 14 -10 5 -26 -7 -13 -7 -20 0 -20 5 0 11
-17 11 -37 l1 -38 8 40 c4 22 6 44 3 48 -3 5 4 3 16 -5 12 -7 21 -16 21 -20 0
-13 -21 -113 -27 -128 -7 -18 -9 -28 -12 -55 -1 -17 -3 -18 -11 -5 -10 15 -5
93 6 112 4 5 -4 8 -17 6 -21 -3 -24 -9 -24 -43 0 -22 -4 -49 -8 -60 -4 -12 -9
-45 -11 -76 -3 -40 -18 -82 -56 -158 -60 -121 -80 -173 -80 -211 0 -15 -7 -44
-15 -64 -9 -20 -13 -41 -10 -46 3 -5 -11 -26 -31 -47 -21 -21 -38 -40 -38 -43
-1 -3 -6 -4 -13 -4 -6 1 -9 -4 -7 -10 2 -6 -10 -26 -28 -43 -26 -25 -37 -30
-48 -22 -13 9 -12 10 2 5 10 -3 20 -1 23 4 3 5 -4 12 -16 15 -19 6 -20 12 -14
51 6 43 6 44 -22 45 -15 1 -34 0 -42 -1 -10 -1 -9 3 3 16 11 11 16 28 14 45
-3 15 0 27 5 26 24 -5 13 20 -16 34 -26 13 -33 24 -39 58 -4 24 -12 49 -18 57
-15 17 -10 93 8 121 18 28 36 19 28 -13 -4 -13 -3 -24 1 -24 12 0 43 33 43 47
0 7 5 13 10 13 6 0 10 -13 10 -30 0 -18 5 -30 13 -30 11 0 13 23 10 108 -7
189 -5 255 8 263 7 4 17 5 22 2 16 -10 43 32 45 72 2 46 24 115 38 118 5 1 8
9 6 17 -2 8 -6 28 -9 43 -4 22 -9 26 -25 21 -15 -4 -19 -2 -14 7 3 8 9 21 12
30 8 23 73 22 76 0z m1718 9 c0 -5 -8 -10 -17 -10 -15 0 -16 2 -3 10 19 12 20
12 20 0z m546 -8 c-10 -2 -22 0 -28 6 -6 6 0 7 19 4 21 -5 23 -7 9 -10z m1334
3 c7 -9 8 -15 2 -15 -5 0 -12 7 -16 15 -3 8 -4 15 -2 15 2 0 9 -7 16 -15z
m-1422 -20 c-3 -3 -9 2 -12 12 -6 14 -5 15 5 6 7 -7 10 -15 7 -18z m162 12 c0
-15 -49 -42 -58 -32 -3 3 0 5 6 5 7 0 12 8 12 18 0 14 2 15 10 2 8 -13 10 -12
10 3 0 9 5 17 10 17 6 0 10 -6 10 -13z m730 9 c0 -3 -4 -8 -10 -11 -5 -3 -10
-1 -10 4 0 6 5 11 10 11 6 0 10 -2 10 -4z m40 0 c0 -11 -19 -15 -25 -6 -3 5 1
10 9 10 9 0 16 -2 16 -4z m920 -19 c10 -4 8 -6 -7 -6 -16 -1 -23 5 -23 17 0
10 3 13 8 6 4 -6 14 -14 22 -17z m120 19 c0 -3 -4 -8 -10 -11 -5 -3 -10 -1
-10 4 0 6 5 11 10 11 6 0 10 -2 10 -4z m-1910 -28 c0 -6 7 -8 15 -4 8 3 15 1
15 -4 0 -6 -7 -10 -15 -10 -8 0 -25 -5 -39 -11 -27 -13 -26 -30 7 -66 24 -27
16 -53 -17 -53 -14 0 -28 -4 -31 -10 -3 -5 -14 -10 -25 -10 -13 0 -17 5 -13
20 3 11 11 20 19 20 7 0 11 -6 8 -14 -4 -11 2 -11 30 2 42 20 44 26 11 48 -14
9 -25 23 -25 31 0 11 -7 9 -30 -7 -16 -12 -30 -17 -30 -11 0 6 9 15 21 21 11
6 24 21 29 33 7 17 9 18 9 5 1 -15 5 -16 26 -6 28 12 33 28 10 28 -8 0 -15 4
-15 9 0 5 9 7 20 4 11 -3 20 -10 20 -15z m770 12 c0 -5 -4 -10 -10 -10 -5 0
-10 5 -10 10 0 6 5 10 10 10 6 0 10 -4 10 -10z m3511 -7 c1 -10 1 -21 0 -25 0
-5 4 -8 9 -8 6 0 10 -13 10 -30 0 -16 -4 -30 -8 -30 -12 0 -14 -61 -1 -76 8
-9 9 -106 5 -336 -8 -405 -8 -407 -23 -401 -7 3 -13 -2 -13 -11 0 -9 -5 -25
-12 -35 -15 -24 -4 -51 22 -51 13 0 20 7 20 20 0 11 3 20 8 20 4 0 8 -147 10
-328 1 -180 5 -370 8 -422 3 -52 1 -108 -3 -124 -5 -16 -5 -56 1 -91 8 -54 7
-66 -8 -80 -10 -11 -14 -25 -10 -37 3 -11 6 -35 6 -54 0 -19 3 -34 8 -34 9 0
18 -361 25 -1015 3 -275 8 -555 11 -622 8 -163 4 -180 -49 -193 -197 -51 -311
-97 -517 -210 l-131 -72 -114 16 c-139 19 -197 38 -385 124 -408 188 -694 340
-831 439 -57 41 -66 52 -63 76 2 24 1 25 -12 12 -9 -8 -19 -15 -24 -15 -14 0
-24 24 -12 28 8 2 9 9 3 20 -14 28 -21 94 -13 137 4 22 10 38 13 35 3 -3 13 1
21 8 10 8 34 11 64 8 61 -5 84 -14 84 -33 0 -15 33 -10 56 9 8 5 18 3 28 -8
16 -15 18 -15 30 1 8 11 26 18 45 18 26 0 31 4 31 23 0 13 5 26 10 29 11 7 56
17 77 18 7 0 15 13 19 30 4 22 10 28 25 24 19 -5 44 15 32 26 -3 4 -1 7 6 7 7
0 12 8 11 18 -3 27 10 60 27 66 7 3 12 2 8 -3 -3 -5 8 -4 24 2 20 7 40 8 63 1
40 -12 118 1 118 20 0 8 6 19 14 25 12 10 33 69 39 111 5 28 22 47 60 65 22
10 43 28 49 40 6 13 21 28 34 35 13 7 21 16 19 20 -5 9 55 58 76 62 8 2 18 8
22 13 5 6 6 -7 3 -27 -2 -21 -2 -38 2 -38 15 1 42 50 46 82 2 18 8 33 15 33
17 0 181 156 198 189 8 16 24 38 34 49 10 12 19 26 19 33 0 7 6 19 13 26 6 7
23 33 36 58 13 25 29 52 36 60 6 8 24 49 40 90 16 41 36 89 45 105 9 17 24 57
34 90 10 33 22 68 27 77 5 10 9 29 9 42 0 14 5 28 10 31 6 4 10 21 8 38 -1 18
4 43 11 56 9 16 16 90 21 210 6 154 4 211 -11 331 -25 198 -46 295 -75 358
-13 29 -24 55 -24 59 0 3 -15 40 -34 82 -31 70 -47 108 -51 121 -27 87 -27
127 1 116 8 -3 15 -1 15 4 1 6 3 15 4 20 1 6 3 18 4 28 1 13 3 14 9 4 8 -12
41 -7 52 8 36 50 67 80 80 80 9 0 27 11 40 25 13 14 20 25 15 25 -4 0 2 8 13
19 12 10 22 24 22 30 0 7 19 30 43 52 23 23 52 50 65 62 13 13 22 17 22 9 0
-9 5 -10 19 -2 14 7 20 7 23 -2 6 -16 28 -1 28 18 0 9 7 23 16 31 8 9 13 24
11 34 -3 12 0 19 9 19 8 0 14 5 14 10 0 6 14 10 30 10 21 0 30 -5 31 -17z
m-4738 -8 c-9 -7 -25 -10 -36 -7 -24 6 -5 20 29 20 22 0 23 -2 7 -13z m652 -9
c0 -15 -4 -21 -9 -16 -5 5 -6 16 -3 24 9 22 12 20 12 -8z m-1181 6 c3 -5 -9
-9 -27 -9 -26 -1 -28 1 -12 7 27 11 33 12 39 2z m2386 -7 c-7 -8 -16 -13 -20
-10 -5 3 -11 -1 -13 -7 -4 -8 -6 -7 -6 4 -1 10 8 18 22 21 12 2 24 5 26 6 2 0
-2 -6 -9 -14z m-3764 -12 c-2 -10 -10 -19 -19 -21 -19 -4 -20 -1 -11 22 8 22
33 20 30 -1z m2952 -8 c-3 -3 -9 2 -12 12 -6 14 -5 15 5 6 7 -7 10 -15 7 -18z
m292 19 c11 -4 12 -7 2 -13 -16 -9 -5 -41 14 -41 8 0 14 -4 14 -10 0 -18 -19
-10 -36 14 -8 14 -29 28 -45 31 -16 4 -31 10 -33 14 -5 8 62 12 84 5z m200 -4
c0 -5 -2 -10 -4 -10 -3 0 -8 5 -11 10 -3 6 -1 10 4 10 6 0 11 -4 11 -10z
m-1970 -10 c0 -5 -8 -10 -17 -10 -15 0 -16 2 -3 10 19 12 20 12 20 0z m1160
-6 c0 -2 -7 -4 -15 -4 -8 0 -15 4 -15 10 0 5 7 7 15 4 8 -4 15 -8 15 -10z
m650 6 c0 -5 -5 -10 -11 -10 -5 0 -7 5 -4 10 3 6 8 10 11 10 2 0 4 -4 4 -10z
m525 0 c3 -6 -1 -7 -9 -4 -18 7 -21 14 -7 14 6 0 13 -4 16 -10z m272 -12 c-3
-8 -6 -5 -6 6 -1 11 2 17 5 13 3 -3 4 -12 1 -19z m-2317 2 c0 -5 -4 -10 -10
-10 -5 0 -10 5 -10 10 0 6 5 10 10 10 6 0 10 -4 10 -10z m2370 0 c0 -5 -5 -10
-11 -10 -5 0 -7 5 -4 10 3 6 8 10 11 10 2 0 4 -4 4 -10z m-2582 -7 c-10 -2
-28 -2 -40 0 -13 2 -5 4 17 4 22 1 32 -1 23 -4z m80 0 c-10 -2 -26 -2 -35 0
-10 3 -2 5 17 5 19 0 27 -2 18 -5z m67 -8 c-39 -13 -39 -14 -10 -16 25 -1 26
-3 7 -6 -12 -2 -19 -9 -16 -15 4 -5 -5 -2 -20 7 -14 9 -33 15 -41 11 -8 -3
-15 -1 -15 4 0 6 11 10 24 10 14 0 27 4 30 8 3 5 22 9 43 9 l38 1 -40 -13z
m891 -10 c1 -14 -2 -25 -7 -25 -5 0 -9 11 -9 25 0 33 15 33 16 0z m-569 -7
c-3 -8 -6 -5 -6 6 -1 11 2 17 5 13 3 -3 4 -12 1 -19z m-540 6 c-3 -3 -12 -4
-19 -1 -8 3 -5 6 6 6 11 1 17 -2 13 -5z m413 2 c0 -2 -7 -7 -16 -10 -8 -3 -12
-2 -9 4 6 10 25 14 25 6z m-477 -13 c-7 -2 -19 -2 -25 0 -7 3 -2 5 12 5 14 0
19 -2 13 -5z m407 -3 c0 -5 -10 -10 -22 -10 -19 0 -20 2 -8 10 19 13 30 13 30
0z m187 -37 c-15 -16 -17 -16 -17 -1 0 9 6 18 13 21 20 7 22 -2 4 -20z m1308
17 c-3 -5 -11 -10 -16 -10 -6 0 -7 5 -4 10 3 6 11 10 16 10 6 0 7 -4 4 -10z
m-1342 -7 c-7 -2 -19 -2 -25 0 -7 3 -2 5 12 5 14 0 19 -2 13 -5z m611 -4 c-3
-6 -22 -17 -40 -25 -24 -10 -34 -21 -34 -37 0 -18 -2 -19 -11 -7 -9 12 -10 11
-6 -7 4 -17 -1 -22 -22 -25 -14 -2 -37 -1 -51 2 -22 5 -19 7 17 13 35 6 44 12
49 33 4 17 15 27 35 31 16 3 34 12 40 19 14 17 33 19 23 3z m-747 -5 c-3 -3
-12 -4 -19 -1 -8 3 -5 6 6 6 11 1 17 -2 13 -5z m108 -11 c26 4 35 2 35 -8 0
-24 -46 -29 -74 -8 -14 10 -26 22 -26 27 0 5 7 3 15 -4 9 -8 29 -10 50 -7z
m-2305 -13 c0 -11 -4 -20 -9 -20 -5 0 -7 9 -4 20 3 11 7 20 9 20 2 0 4 -9 4
-20z m1684 -30 c103 -89 106 -92 96 -110 -6 -10 -56 -43 -112 -73 -57 -30
-129 -69 -161 -87 -86 -47 -91 -32 -32 82 67 130 123 216 143 221 20 4 28 1
66 -33z m478 18 c-7 -7 -12 -8 -12 -2 0 14 12 26 19 19 2 -3 -1 -11 -7 -17z
m1445 -10 c-3 -8 -6 -5 -6 6 -1 11 2 17 5 13 3 -3 4 -12 1 -19z m843 12 c0 -5
-5 -10 -11 -10 -5 0 -7 5 -4 10 3 6 8 10 11 10 2 0 4 -4 4 -10z m29 -31 c1
-11 -49 -20 -63 -12 -9 5 -11 15 -5 28 7 18 8 18 9 -5 1 -14 4 -19 7 -12 2 6
9 9 15 6 5 -3 12 4 15 17 6 22 7 22 14 3 4 -10 8 -22 8 -25z m71 24 c23 6 25
1 7 -18 -8 -7 -25 -11 -40 -8 -30 6 -29 5 -21 27 5 13 9 14 20 5 8 -6 23 -9
34 -6z m320 -18 c0 -22 -6 -38 -15 -41 -8 -4 -13 -10 -10 -14 3 -4 -6 -15 -19
-24 -14 -8 -27 -24 -30 -34 -8 -26 -44 -40 -83 -35 -33 5 -48 33 -18 33 14 0
19 12 16 33 0 4 9 7 22 7 32 0 48 13 50 42 2 28 42 67 70 68 13 0 17 -8 17
-35z m610 23 c0 -4 -5 -10 -10 -13 -6 -4 -7 -11 -4 -17 4 -6 -1 -8 -13 -4 -17
5 -20 2 -18 -18 2 -19 -1 -23 -13 -19 -10 4 -20 11 -24 17 -5 7 -8 4 -8 -6 0
-10 5 -18 11 -18 8 0 7 -5 -1 -15 -22 -26 -33 -1 -16 36 8 19 15 28 15 22 1
-7 6 -13 12 -13 6 0 9 7 5 15 -3 8 1 20 8 28 14 13 56 18 56 5z m-4715 -8 c3
-5 -3 -10 -15 -10 -12 0 -18 5 -15 10 3 6 10 10 15 10 5 0 12 -4 15 -10z m255
-43 c11 -18 20 -35 20 -39 0 -8 -167 -128 -184 -132 -6 -2 -8 -1 -3 1 4 3 5 9
1 14 -3 5 0 9 6 9 6 0 9 4 6 9 -8 13 10 57 34 83 11 12 20 25 20 30 0 5 10 24
22 42 26 40 46 36 78 -17z m2874 47 c24 -9 19 -24 -7 -24 -13 0 -32 -7 -43
-15 -26 -20 -58 -19 -77 3 -14 15 -15 19 -2 19 8 0 12 -4 9 -8 -2 -4 0 -10 5
-13 5 -3 11 1 15 9 3 8 17 15 31 15 14 0 25 5 25 10 0 11 20 13 44 4z m443 0
c-3 -3 -12 -4 -19 -1 -8 3 -5 6 6 6 11 1 17 -2 13 -5z m-1386 -13 c7 11 9 10
9 -4 0 -20 -22 -19 -26 1 -2 9 -1 9 3 1 4 -8 8 -7 14 2z m676 -13 c-3 -8 -6
-5 -6 6 -1 11 2 17 5 13 3 -3 4 -12 1 -19z m80 16 c-3 -3 -12 -4 -19 -1 -8 3
-5 6 6 6 11 1 17 -2 13 -5z m31 -19 c-3 -3 -9 2 -12 12 -6 14 -5 15 5 6 7 -7
10 -15 7 -18z m196 10 c3 -8 1 -15 -4 -15 -6 0 -10 7 -10 15 0 8 2 15 4 15 2
0 6 -7 10 -15z m146 1 c0 -2 -7 -6 -15 -10 -8 -3 -15 -1 -15 4 0 6 7 10 15 10
8 0 15 -2 15 -4z m287 -2 c-3 -3 -12 -4 -19 -1 -8 3 -5 6 6 6 11 1 17 -2 13
-5z m-1363 -13 c4 -5 0 -12 -6 -14 -7 -3 -3 -6 9 -6 12 -1 24 -5 27 -10 4 -5
-5 -6 -21 -2 -16 4 -29 15 -31 24 -4 18 13 23 22 8z m713 3 c-3 -3 -12 -4 -19
-1 -8 3 -5 6 6 6 11 1 17 -2 13 -5z m-1590 -19 c-10 -24 11 -27 27 -3 15 21
22 14 17 -14 0 -5 4 -8 9 -8 6 0 10 -5 10 -12 0 -6 10 -23 23 -36 16 -19 18
-24 5 -19 -9 3 -22 -1 -28 -9 -10 -11 -9 -14 6 -14 15 -1 13 -4 -9 -16 -15 -8
-25 -19 -21 -25 5 -9 -16 -7 -70 8 -10 3 -22 -1 -27 -8 -7 -11 -9 -10 -9 4 0
16 6 17 46 11 54 -8 64 1 64 57 0 39 -14 49 -72 49 -16 0 -28 5 -28 11 0 5 6
7 13 3 7 -4 9 -3 4 2 -5 5 -13 10 -18 10 -23 3 -22 7 6 14 48 12 58 11 52 -5z
m823 -11 c0 -2 -9 -4 -20 -4 -11 0 -20 4 -20 9 0 5 9 7 20 4 11 -3 20 -7 20
-9z m684 -5 c-6 -11 -24 -2 -24 11 0 5 7 7 15 4 8 -4 12 -10 9 -15z m-3284 2
c0 -16 -12 -41 -20 -41 -4 0 -5 11 -2 25 4 23 22 36 22 16z m2320 -6 c0 -8 -4
-15 -10 -15 -5 0 -7 7 -4 15 4 8 8 15 10 15 2 0 4 -7 4 -15z m3045 -5 c3 -5
-3 -10 -14 -10 -12 0 -21 5 -21 10 0 6 6 10 14 10 8 0 18 -4 21 -10z m-2785
-46 c0 -2 -7 -4 -15 -4 -8 0 -15 4 -15 10 0 5 7 7 15 4 8 -4 15 -8 15 -10z
m103 -1 c-7 -2 -19 -2 -25 0 -7 3 -2 5 12 5 14 0 19 -2 13 -5z m1377 -8 c0 -8
-4 -15 -10 -15 -5 0 -7 7 -4 15 4 8 8 15 10 15 2 0 4 -7 4 -15z m1697 -1 c-2
-2 -25 -6 -51 -8 -53 -5 -57 4 -5 10 18 2 34 6 37 9 3 2 9 2 14 -1 5 -3 8 -8
5 -10z m-4131 -9 c-5 -13 4 -19 25 -17 3 1 6 -5 6 -13 0 -15 -14 -9 -49 18
-24 19 -23 27 3 27 15 0 19 -5 15 -15z m3699 -4 c3 -5 2 -12 -3 -15 -5 -3 -9
1 -9 9 0 17 3 19 12 6z m562 3 c-3 -3 -12 -4 -19 -1 -8 3 -5 6 6 6 11 1 17 -2
13 -5z m-3619 -21 c-2 -12 4 -19 20 -21 12 -2 22 1 22 7 0 6 17 11 38 11 27 0
39 -4 39 -14 0 -11 -5 -12 -24 -3 -17 8 -27 7 -36 -2 -9 -10 -9 -11 4 -6 10 4
20 2 23 -4 4 -6 -12 -8 -46 -6 -29 2 -60 5 -68 5 -10 1 -9 4 5 10 11 5 14 9 7
9 -10 1 -10 4 0 16 17 19 19 18 16 -2z m3507 -1 c-3 -3 -11 0 -18 7 -9 10 -8
11 6 5 10 -3 15 -9 12 -12z m65 14 c0 -3 -4 -8 -10 -11 -5 -3 -10 -1 -10 4 0
6 5 11 10 11 6 0 10 -2 10 -4z m-4095 -182 c71 -54 139 -106 150 -114 76 -53
289 -192 335 -217 l55 -31 7 -188 c11 -330 33 -444 114 -607 53 -105 130 -222
197 -301 l58 -68 -23 -25 c-66 -71 -303 -238 -400 -281 -176 -80 -440 -162
-520 -162 -86 0 -281 77 -310 122 -7 13 -22 49 -32 81 -20 66 -57 113 -121
154 -24 15 -53 44 -65 65 l-21 37 23 5 c13 3 64 8 113 11 92 6 123 18 95 35
-8 5 -22 8 -30 6 -8 -3 -94 -8 -190 -11 -200 -8 -194 -10 -209 71 -10 50 -35
81 -75 89 -11 2 -79 7 -151 12 l-130 8 1 40 c1 48 41 231 89 410 67 247 76
276 85 293 5 9 21 51 35 92 15 41 40 100 56 130 15 30 38 73 49 95 27 53 45
76 54 67 4 -4 7 -2 5 3 -1 6 3 21 9 35 6 14 11 21 11 17 1 -4 11 3 24 17 55
60 374 248 467 275 20 6 34 1 70 -29 25 -20 103 -81 175 -136z m3895 167 c0
-6 -4 -12 -8 -15 -5 -3 -9 1 -9 9 0 8 4 15 9 15 4 0 8 -4 8 -9z m-235 -14 c3
-4 2 -5 -1 -2 -4 2 -15 0 -25 -6 -14 -7 -19 -6 -19 4 0 14 35 17 45 4z m267
-15 c3 -9 1 -26 -3 -37 -4 -11 -8 -15 -8 -8 -1 6 -10 9 -20 6 -11 -3 -28 0
-38 7 -16 10 -16 10 4 5 13 -3 31 -2 40 4 15 9 14 11 -12 12 -29 1 -29 1 -5 8
14 4 24 13 22 20 -4 19 15 4 20 -17z m-6033 -52 c-1 -39 -5 -73 -10 -75 -15
-10 -21 66 -10 138 1 4 5 7 11 7 6 0 9 -29 9 -70z m2781 54 c0 -8 -4 -12 -10
-9 -5 3 -10 10 -10 16 0 5 5 9 10 9 6 0 10 -7 10 -16z m2870 6 c0 -5 -5 -10
-11 -10 -5 0 -7 5 -4 10 3 6 8 10 11 10 2 0 4 -4 4 -10z m580 0 c0 -5 -2 -10
-4 -10 -3 0 -8 5 -11 10 -3 6 -1 10 4 10 6 0 11 -4 11 -10z m-3817 -41 c5 -4
-1 -6 -14 -6 -18 0 -24 5 -25 23 -2 22 -1 22 14 6 9 -9 21 -20 25 -23z m3907
31 c0 -5 -2 -10 -4 -10 -3 0 -8 5 -11 10 -3 6 -1 10 4 10 6 0 11 -4 11 -10z
m-131 -4 c-2 -2 -17 -6 -34 -10 -22 -5 -26 -4 -15 4 14 9 59 15 49 6z m201 0
c0 -3 -4 -8 -10 -11 -5 -3 -10 -1 -10 4 0 6 5 11 10 11 6 0 10 -2 10 -4z
m-4257 -45 c18 -7 26 -7 22 -1 -4 6 7 10 24 10 17 0 31 -5 31 -11 0 -6 -7 -9
-15 -6 -8 4 -17 2 -20 -3 -9 -15 11 -20 45 -10 27 8 38 6 52 -7 24 -22 48 -25
48 -7 0 8 6 11 15 8 8 -4 13 -10 10 -15 -3 -4 37 -7 90 -5 53 1 98 -1 101 -6
3 -4 0 -8 -7 -8 -7 0 -10 -3 -6 -6 3 -3 15 -3 28 1 17 6 19 9 8 16 -9 5 -3 7
16 5 49 -6 51 -8 25 -16 -23 -7 -23 -8 10 -11 19 -1 58 -3 85 -4 74 -3 77 -4
70 -15 -9 -14 7 -12 28 4 18 14 67 10 67 -6 0 -5 -5 -6 -10 -3 -15 9 -51 -5
-44 -17 4 -7 9 -6 14 2 5 8 16 9 31 4 13 -4 27 -7 32 -6 4 1 7 -2 7 -8 0 -13
-76 -13 -102 1 -16 9 -19 8 -13 -2 6 -9 3 -11 -9 -6 -10 4 -22 7 -27 7 -4 0
-6 7 -3 15 4 10 0 15 -11 15 -11 0 -15 -5 -12 -14 4 -10 1 -13 -8 -10 -8 3
-11 13 -8 21 4 11 2 14 -8 11 -8 -3 -13 -13 -13 -22 1 -12 -3 -15 -17 -11 -11
4 -19 2 -19 -4 0 -6 9 -11 20 -11 13 0 17 -5 14 -14 -3 -8 2 -16 13 -19 10 -3
2 -5 -17 -6 -26 0 -31 2 -20 9 13 8 12 11 -5 24 -16 13 -57 21 -67 14 -2 -1
-14 5 -28 12 -36 20 -48 23 -122 25 -38 1 -71 5 -75 9 -4 4 0 4 10 0 10 -3 17
-1 17 5 0 6 -11 11 -25 11 -16 0 -23 -5 -19 -13 3 -9 -6 -12 -36 -9 -31 3 -40
8 -36 18 4 12 2 12 -15 4 -25 -14 -75 -9 -72 7 3 14 -18 32 -43 36 -10 2 -30
9 -43 16 -18 10 -21 15 -10 22 7 4 16 4 19 -1 3 -5 18 -14 33 -19z m7 19 c0
-5 -2 -10 -4 -10 -3 0 -8 5 -11 10 -3 6 -1 10 4 10 6 0 11 -4 11 -10z m3928
-11 c-9 -6 -8 -9 8 -9 11 0 26 6 33 13 12 10 13 8 7 -8 -8 -23 -9 -25 -7 -42
1 -16 59 -46 72 -38 5 4 17 4 26 1 24 -10 -3 -36 -36 -35 l-26 1 25 8 25 8
-25 1 c-14 1 -42 10 -63 21 -20 11 -37 16 -37 10 0 -5 -4 -10 -10 -10 -5 0
-10 7 -10 15 0 8 5 15 10 15 17 0 11 28 -7 39 -11 6 -13 11 -5 11 7 0 10 4 7
10 -3 6 1 7 10 3 13 -5 14 -7 3 -14z m282 -3 c-7 -7 -14 -6 -21 1 -9 9 -7 12
9 10 14 -1 18 -5 12 -11z m-3873 -22 c-1 -2 -13 -1 -26 3 -16 4 -19 8 -10 14
12 7 45 -9 36 -17z m-57 -5 c0 -6 -4 -7 -10 -4 -5 3 -10 11 -10 16 0 6 5 7 10
4 6 -3 10 -11 10 -16z m3767 -21 c-3 -8 -6 -5 -6 6 -1 11 2 17 5 13 3 -3 4
-12 1 -19z m-647 2 c0 -5 -4 -10 -10 -10 -5 0 -10 5 -10 10 0 6 5 10 10 10 6
0 10 -4 10 -10z m-1415 -22 c3 -3 -8 -8 -25 -10 -29 -4 -37 1 -24 15 8 7 40 4
49 -5z m1045 -8 c0 -5 -10 -10 -22 -10 -19 0 -20 2 -8 10 19 13 30 13 30 0z
m-126 -14 c-3 -9 9 -24 31 -39 20 -14 32 -28 26 -31 -5 -4 -12 -2 -16 4 -3 5
-17 10 -29 10 -13 0 -29 7 -36 15 -9 10 -9 15 -1 15 6 0 11 9 11 20 0 11 4 20
10 20 5 0 7 -6 4 -14z m-2104 0 c0 -8 -61 -12 -66 -4 -3 4 11 8 30 8 20 0 36
-2 36 -4z m3100 -6 c0 -17 -48 -60 -66 -60 -17 0 -11 14 7 16 5 1 14 2 19 3 6
0 10 7 10 14 0 7 5 18 12 25 15 15 18 15 18 2z m-3540 -17 c21 -5 15 -8 -29
-19 -30 -7 -59 -10 -63 -8 -5 3 -15 0 -23 -6 -9 -7 -26 -9 -42 -5 -20 5 -23 9
-14 15 11 6 10 9 -5 13 -17 4 -17 5 -1 6 10 0 20 -5 23 -12 4 -11 13 -12 44
-3 22 5 40 13 40 16 0 8 40 9 70 3z m3554 -27 c-3 -9 -10 -16 -15 -16 -5 0 -9
-8 -10 -17 0 -10 -3 -13 -5 -6 -3 6 2 23 12 38 18 27 29 28 18 1z m-3754 4 c0
-5 -7 -7 -15 -4 -8 4 -15 8 -15 10 0 2 7 4 15 4 8 0 15 -4 15 -10z m3295 0 c3
-5 -1 -10 -9 -10 -9 0 -16 5 -16 10 0 6 4 10 9 10 6 0 13 -4 16 -10z m-2883
-12 c2 -6 15 -12 29 -13 30 -2 42 -45 12 -45 -15 0 -16 2 -3 10 13 8 13 10 -1
10 -16 0 -59 32 -59 44 0 11 18 6 22 -6z m86 2 c19 0 23 -3 13 -9 -8 -5 -11
-16 -6 -30 5 -16 2 -21 -12 -21 -14 0 -15 2 -4 9 9 6 10 11 2 15 -6 4 -9 12
-6 17 5 8 -16 14 -37 10 -5 0 -8 4 -8 10 0 6 7 8 16 5 9 -3 28 -6 42 -6z
m1042 -5 c-7 -8 -17 -15 -23 -15 -6 0 -2 7 9 15 25 19 30 19 14 0z m190 11 c0
-9 -30 -14 -35 -6 -4 6 3 10 14 10 12 0 21 -2 21 -4z m130 -7 c0 -4 -10 -7
-22 -7 -13 0 -36 -4 -52 -8 -23 -5 -27 -4 -21 6 6 10 4 12 -8 7 -10 -3 -17 -2
-17 3 0 6 27 9 60 8 33 -1 60 -5 60 -9z m1930 7 c0 -3 -4 -8 -10 -11 -5 -3
-10 -1 -10 4 0 6 5 11 10 11 6 0 10 -2 10 -4z m45 -16 c-10 -17 -66 -33 -77
-22 -7 7 -6 10 3 9 34 -1 49 4 49 18 0 9 6 12 15 9 8 -4 13 -10 10 -14z
m-5880 0 c3 -5 1 -10 -4 -10 -6 0 -11 5 -11 10 0 6 2 10 4 10 3 0 8 -4 11 -10z
m5385 -10 c0 -5 -4 -10 -9 -10 -6 0 -13 5 -16 10 -3 6 1 10 9 10 9 0 16 -4 16
-10z m364 -15 c-6 -15 4 -19 41 -15 26 3 20 -3 -35 -30 -33 -17 -41 -19 -31
-7 7 9 10 24 7 33 -7 17 0 34 14 34 5 0 7 -7 4 -15z m-2914 -18 c11 -5 9 -6
-4 -4 -11 1 -21 9 -23 17 -3 10 -2 11 4 4 4 -6 15 -14 23 -17z m70 14 c0 -10
-41 -23 -49 -16 -2 3 2 6 10 6 8 1 1 5 -16 9 -28 7 -27 8 13 9 23 0 42 -3 42
-8z m143 2 c-7 -2 -21 -2 -30 0 -10 3 -4 5 12 5 17 0 24 -2 18 -5z m1367 -8
c-10 -12 -10 -18 1 -32 26 -34 34 -40 62 -47 15 -3 27 -12 27 -20 0 -7 12 -20
28 -27 39 -20 35 -44 -8 -46 -51 -3 -90 17 -97 50 -4 17 -12 27 -23 27 -39 0
-50 11 -50 51 0 32 3 39 20 39 11 0 20 5 20 10 0 6 7 10 16 10 14 0 14 -3 4
-15z m-1983 -1 c-3 -3 -12 -4 -19 -1 -8 3 -5 6 6 6 11 1 17 -2 13 -5z m38 -4
c3 -5 2 -10 -4 -10 -5 0 -13 5 -16 10 -3 6 -2 10 4 10 5 0 13 -4 16 -10z
m2718 3 c3 -5 -6 -9 -19 -9 -13 -1 -21 2 -18 7 6 11 31 12 37 2z m-2140 -10
c-7 -2 -19 -2 -25 0 -7 3 -2 5 12 5 14 0 19 -2 13 -5z m3050 -37 c13 -17 43
-76 66 -131 24 -55 54 -124 67 -154 13 -29 24 -57 24 -62 0 -5 -15 -30 -34
-56 -40 -57 -74 -122 -111 -218 -15 -38 -41 -99 -58 -135 -17 -36 -32 -70 -33
-76 -4 -25 -37 -65 -46 -56 -5 5 -14 40 -19 78 -31 210 -93 484 -131 577 -20
52 -32 131 -18 122 4 -3 10 4 13 15 3 13 10 18 21 14 12 -4 16 0 16 15 0 12 6
21 15 21 8 0 15 5 15 10 0 6 7 10 15 10 8 0 15 5 15 10 0 6 6 10 13 10 7 0 23
9 36 21 12 11 28 18 36 15 8 -3 17 -1 19 3 11 17 58 -3 79 -33z m-708 24 c3
-5 -1 -10 -10 -10 -9 0 -13 5 -10 10 3 6 8 10 10 10 2 0 7 -4 10 -10z m-2811
-8 c2 -4 -5 -9 -17 -9 -17 -2 -19 0 -7 7 18 12 18 12 24 2z m2230 -14 c3 -13
0 -27 -6 -33 -7 -7 -9 -6 -5 1 4 7 0 14 -8 18 -8 3 -12 12 -9 21 9 22 21 19
28 -7z m-1599 -9 c11 -17 -13 -17 -30 1 -16 18 -16 18 4 13 12 -3 24 -9 26
-14z m2482 15 c-3 -3 -12 -4 -19 -1 -8 3 -5 6 6 6 11 1 17 -2 13 -5z m-267
-20 c0 -2 -11 -4 -25 -4 -14 0 -25 4 -25 9 0 4 11 6 25 3 14 -2 25 -6 25 -8z
m85 6 c3 -5 1 -10 -4 -10 -6 0 -11 5 -11 10 0 6 2 10 4 10 3 0 8 -4 11 -10z
m-2395 -16 c0 -2 -7 -4 -15 -4 -8 0 -15 4 -15 10 0 5 7 7 15 4 8 -4 15 -8 15
-10z m55 6 c3 -5 2 -10 -4 -10 -5 0 -13 5 -16 10 -3 6 -2 10 4 10 5 0 13 -4
16 -10z m665 6 c0 -2 -7 -7 -16 -10 -8 -3 -12 -2 -9 4 6 10 25 14 25 6z m1283
-3 c-7 -2 -19 -2 -25 0 -7 3 -2 5 12 5 14 0 19 -2 13 -5z m-23 -25 c0 -5 -9
-4 -20 2 -11 6 -20 12 -20 14 0 2 9 2 20 -1 11 -3 20 -9 20 -15z m580 12 c-20
-13 -33 -13 -25 0 3 6 14 10 23 10 15 0 15 -2 2 -10z m-240 -10 c0 -5 -2 -10
-4 -10 -3 0 -8 5 -11 10 -3 6 -1 10 4 10 6 0 11 -4 11 -10z m55 0 c3 -5 1 -10
-4 -10 -6 0 -11 5 -11 10 0 6 2 10 4 10 3 0 8 -4 11 -10z m-2330 -10 c3 -6 -1
-7 -9 -4 -18 7 -21 14 -7 14 6 0 13 -4 16 -10z m595 0 c0 -5 -5 -10 -11 -10
-5 0 -7 5 -4 10 3 6 8 10 11 10 2 0 4 -4 4 -10z m50 -2 c0 -7 -5 -20 -10 -28
-8 -12 -10 -12 -11 5 l0 20 -9 -20 c-8 -20 -9 -20 -9 1 -1 11 2 24 6 27 11 12
33 8 33 -5z m-1355 -9 c11 -16 1 -19 -13 -3 -7 8 -8 14 -3 14 5 0 13 -5 16
-11z m879 -7 c2 -4 -5 -9 -17 -9 -17 -2 -19 0 -7 7 18 12 18 12 24 2z m51 -2
c-3 -5 -14 -10 -23 -10 -15 0 -15 2 -2 10 20 13 33 13 25 0z m215 -4 c0 -15
-37 -32 -47 -22 -4 3 1 6 11 6 9 0 15 4 12 9 -3 5 -15 7 -26 4 -11 -3 -18 -9
-15 -13 3 -5 -4 -6 -15 -3 -11 3 -20 10 -20 15 0 5 4 7 8 4 4 -2 14 -1 22 5
24 14 70 11 70 -5z m-800 -16 c0 -5 -2 -10 -4 -10 -3 0 -8 5 -11 10 -3 6 -1
10 4 10 6 0 11 -4 11 -10z m197 4 c-3 -3 -12 -4 -19 -1 -8 3 -5 6 6 6 11 1 17
-2 13 -5z m463 -10 c0 -2 -7 -4 -15 -4 -8 0 -15 4 -15 10 0 5 7 7 15 4 8 -4
15 -8 15 -10z m-1020 -2 c0 -5 -7 -9 -15 -9 -8 0 -15 4 -15 9 0 4 7 8 15 8 8
0 15 -4 15 -8z m47 -38 c-6 -7 -37 25 -37 39 0 6 9 1 21 -12 12 -12 19 -24 16
-27z m828 24 c-1 -13 -5 -22 -8 -20 -4 1 -11 2 -17 2 -5 0 -2 9 7 20 21 24 20
25 18 -2z m-638 6 c-3 -3 -12 -4 -19 -1 -8 3 -5 6 6 6 11 1 17 -2 13 -5z m818
-10 c7 2 16 -1 19 -9 3 -8 15 -12 33 -9 15 3 36 5 46 5 9 0 17 4 17 8 0 7 39
3 83 -7 4 -1 12 -2 17 -2 6 0 10 -5 10 -11 0 -6 -7 -8 -15 -5 -52 21 -51 21
-35 1 14 -17 13 -18 -3 -12 -11 4 -24 4 -30 0 -7 -5 0 -10 18 -14 l30 -7 -27
-1 c-16 0 -28 -5 -28 -9 0 -8 22 -13 68 -16 20 -1 21 -2 6 -13 -11 -8 -23 -9
-35 -3 -10 6 -31 10 -48 10 -33 0 -41 14 -17 27 12 6 10 11 -10 20 -13 6 -24
7 -24 2 0 -6 -9 -5 -21 1 -15 8 -24 8 -34 0 -10 -9 -21 -8 -42 4 l-28 15 33
-3 c17 -2 32 1 32 5 0 8 -30 11 -122 12 -16 0 -28 4 -28 8 0 12 51 15 88 6 19
-5 40 -6 47 -3z m295 3 c0 -8 -7 -14 -15 -14 -25 0 -17 17 13 26 1 1 2 -5 2
-12z m-1175 -16 c-8 -14 -35 -14 -35 -1 0 5 7 7 15 4 8 -4 15 -1 15 7 0 7 3
10 6 6 3 -3 3 -10 -1 -16z m2650 9 c-3 -5 -12 -10 -18 -10 -7 0 -6 4 3 10 19
12 23 12 15 0z m-2565 -10 c0 -5 -7 -7 -15 -4 -8 4 -15 8 -15 10 0 2 7 4 15 4
8 0 15 -4 15 -10z m140 6 c0 -9 -40 -13 -46 -5 -3 5 6 9 20 9 14 0 26 -2 26
-4z m347 -2 c-3 -3 -12 -4 -19 -1 -8 3 -5 6 6 6 11 1 17 -2 13 -5z m1946 -4
c6 0 2 -6 -8 -14 -22 -16 -35 -12 -35 11 0 10 6 13 16 9 9 -3 21 -6 27 -6z
m-2255 -22 c4 -20 -45 -31 -52 -11 -4 10 1 12 22 6 25 -6 26 -5 12 12 -13 16
-13 18 0 13 8 -2 16 -12 18 -20z m2405 7 c-3 -9 -8 -14 -10 -11 -3 3 -2 9 2
15 9 16 15 13 8 -4z m71 3 c-3 -4 -9 -8 -15 -8 -5 0 -9 4 -9 8 0 5 7 9 15 9 8
0 12 -4 9 -9z m-2068 -13 c10 -8 14 -15 7 -15 -6 0 -15 5 -18 11 -4 6 -14 8
-22 5 -8 -3 -11 -1 -8 4 8 14 18 13 41 -5z m148 4 c-6 -11 -35 -11 -51 -1 -8
5 1 8 22 9 19 1 32 -3 29 -8z m346 -3 c0 -17 -24 -38 -33 -29 -13 12 -7 22 10
16 12 -5 15 -2 10 10 -3 9 -2 17 3 17 6 0 10 -6 10 -14z m-1235 -7 c-5 -6 -55
0 -55 7 0 3 13 3 29 2 16 -1 28 -5 26 -9z m95 7 c0 -2 -15 -9 -32 -15 -30 -10
-31 -9 -14 4 18 14 46 20 46 11z m32 -7 c3 -9 10 -9 27 0 12 7 25 10 29 7 3
-3 0 -6 -7 -6 -7 0 -10 -4 -6 -9 3 -6 -3 -9 -12 -9 -10 0 -22 0 -28 -2 -22 -5
-34 1 -29 15 7 18 21 20 26 4z m132 -4 c-6 -16 -64 -18 -64 -3 0 5 11 6 24 2
13 -3 27 -1 30 5 10 16 16 13 10 -4z m1826 -6 c0 -15 5 -19 15 -15 18 6 21
-25 5 -55 -11 -19 -40 -26 -54 -11 -4 4 -12 8 -17 8 -5 1 -13 2 -17 3 -12 1
-33 49 -24 54 4 2 19 7 35 11 15 3 27 11 27 16 0 6 7 10 15 10 9 0 15 -9 15
-21z m310 11 c0 -5 -4 -10 -10 -10 -5 0 -10 5 -10 10 0 6 5 10 10 10 6 0 10
-4 10 -10z m117 -2 c26 -10 40 -9 69 1 37 13 59 7 34 -10 -8 -5 -40 -8 -72 -7
-31 2 -54 0 -51 -4 2 -5 -1 -8 -6 -8 -6 0 -11 2 -11 4 0 2 -3 11 -6 20 -7 19
-1 20 43 4z m183 2 c-33 -11 -69 -12 -53 -2 7 4 27 8 45 9 30 1 31 1 8 -7z
m-1865 -10 c3 -6 -1 -7 -9 -4 -18 7 -21 14 -7 14 6 0 13 -4 16 -10z m345 0
c-8 -5 -10 -10 -5 -10 6 0 2 -5 -8 -11 -10 -6 -21 -9 -23 -6 -7 7 25 37 39 37
7 0 6 -4 -3 -10z m1268 -6 c6 3 13 2 17 -4 4 -6 -18 -9 -62 -8 -48 1 -56 3
-25 5 23 2 42 9 42 16 0 8 3 7 9 -2 5 -7 13 -11 19 -7z m-1498 -3 c0 -5 -7
-17 -16 -25 -17 -18 -28 -21 -20 -7 4 5 3 11 -1 14 -5 2 -2 2 6 0 8 -2 11 2 7
12 -3 9 0 15 9 15 8 0 15 -4 15 -9z m-3535 -31 c-5 -8 -11 -8 -17 -2 -6 6 -7
16 -3 22 5 8 11 8 17 2 6 -6 7 -16 3 -22z m2630 12 c-3 -3 -11 0 -18 7 -9 10
-8 11 6 5 10 -3 15 -9 12 -12z m125 -2 c0 -5 -7 -7 -15 -4 -8 4 -15 8 -15 10
0 2 7 4 15 4 8 0 15 -4 15 -10z m40 0 c12 -8 11 -10 -7 -10 -13 0 -23 5 -23
10 0 13 11 13 30 0z m70 6 c0 -2 -11 -6 -25 -8 -13 -3 -22 -1 -19 3 5 9 44 13
44 5z m301 -17 c-11 -9 -19 -18 -18 -20 1 -2 0 -2 -3 -1 -3 2 -5 7 -5 10 0 4
-3 12 -7 18 -5 7 3 11 23 10 29 -1 29 -1 10 -17z m309 11 c0 -5 -8 -10 -17
-10 -15 0 -16 2 -3 10 19 12 20 12 20 0z m-890 -15 c7 -9 10 -18 6 -22 -3 -3
-6 -1 -6 5 0 7 -6 12 -14 12 -8 0 -18 5 -21 10 -10 16 21 11 35 -5z m1240 -24
c0 -12 -29 -23 -41 -15 -5 3 -9 1 -9 -5 0 -6 -7 -8 -15 -5 -25 10 -17 23 18
27 17 2 35 5 40 5 4 1 7 -2 7 -7z m-135 -29 c-2 -3 -12 -1 -22 2 -15 6 -15 9
-3 16 13 8 35 -8 25 -18z m1575 17 c0 -6 9 -8 20 -4 12 4 20 2 20 -5 0 -11
172 -6 191 6 5 3 17 1 26 -5 12 -6 31 -5 58 5 52 18 52 18 66 -7 8 -15 8 -24
0 -32 -8 -8 -11 -8 -11 1 0 7 -14 12 -35 12 -35 0 -49 -20 -25 -35 8 -5 7 -11
-1 -21 -9 -11 -8 -14 7 -15 18 0 18 -1 -1 -9 -13 -6 -15 -9 -5 -9 12 -1 13 -3
1 -10 -10 -6 -10 -10 -1 -16 9 -6 9 -10 -1 -16 -8 -5 -9 -9 -4 -9 6 0 12 -11
13 -25 1 -14 11 -46 22 -70 11 -24 20 -48 20 -54 0 -5 9 -31 20 -56 19 -45 20
-48 3 -61 -10 -7 -28 -14 -41 -14 -13 0 -35 -12 -50 -27 -26 -27 -26 -28 -6
-31 16 -2 20 -8 17 -23 -3 -10 -12 -19 -20 -19 -8 0 -11 5 -8 10 3 6 -4 10
-17 10 -17 0 -19 3 -9 9 10 6 12 19 7 44 -5 29 -3 35 14 40 37 10 23 28 -16
21 -27 -5 -35 -4 -30 5 4 6 12 9 17 6 5 -4 9 -1 9 4 0 6 10 11 23 12 12 0 16
3 9 6 -10 4 -9 8 4 18 21 15 27 45 9 45 -22 0 -39 28 -26 44 8 9 8 16 2 20 -5
4 -12 2 -16 -4 -4 -6 -10 -8 -15 -5 -5 3 -20 -7 -34 -21 -22 -25 -23 -29 -10
-49 11 -17 12 -29 4 -50 -11 -30 1 -55 26 -55 8 0 14 -10 14 -25 0 -14 -5 -25
-10 -25 -6 0 -8 -10 -4 -24 3 -15 -1 -29 -11 -40 -20 -19 -12 -51 10 -42 17 6
48 -21 39 -35 -3 -6 0 -17 7 -25 6 -8 8 -18 4 -22 -4 -4 -10 -1 -12 6 -3 6
-11 12 -19 12 -19 0 -18 -35 1 -54 8 -8 15 -21 15 -30 0 -8 5 -18 11 -21 17
-11 28 -49 16 -57 -7 -4 -7 -11 1 -21 9 -11 10 -22 2 -41 -13 -36 -13 -36 9
-36 27 0 34 -15 26 -51 -5 -21 -11 -29 -21 -25 -9 3 -25 -3 -37 -15 -19 -17
-23 -18 -25 -5 -2 9 -8 16 -13 16 -5 0 -8 -3 -7 -7 1 -5 -11 -23 -28 -41 -26
-28 -36 -32 -60 -27 -19 4 -25 3 -16 -3 10 -7 6 -12 -15 -19 -95 -36 -125 -44
-130 -39 -4 3 3 19 14 34 17 23 19 31 8 45 -29 40 -69 -20 -46 -69 6 -13 9
-24 7 -24 -3 0 -11 -3 -20 -6 -13 -5 -16 2 -18 32 -1 38 -1 38 -5 6 -3 -24
-11 -36 -29 -43 -32 -12 -34 -12 -34 4 0 7 -13 28 -29 47 -38 47 -162 271
-155 282 3 4 1 8 -4 8 -21 0 -91 207 -77 230 3 5 0 12 -6 16 -6 4 -9 19 -5 36
3 17 2 27 -4 23 -6 -4 -8 5 -5 22 12 81 14 123 4 129 -7 4 -8 23 -4 51 3 24 8
77 10 116 6 111 14 147 34 147 9 0 22 5 29 12 9 9 21 8 52 -1 22 -6 46 -8 53
-4 6 4 17 8 22 10 6 1 21 4 34 7 33 8 71 -3 71 -20 0 -21 18 -17 25 5 3 11 24
26 48 34 54 19 57 19 57 6z m-1700 -5 c0 -1 -3 -9 -6 -18 -8 -22 -24 -20 -24
2 0 10 7 19 15 19 8 0 15 -1 15 -3z m24 -9 c-4 -8 -2 -15 4 -15 5 0 12 -7 16
-15 3 -9 0 -15 -10 -15 -8 0 -12 5 -9 10 3 6 1 10 -4 10 -6 0 -11 9 -11 20 0
11 4 20 10 20 5 0 7 -7 4 -15z m-2952 -98 c-7 -46 -12 -120 -12 -164 l0 -82
-60 -53 c-33 -29 -66 -53 -73 -53 -8 0 -12 18 -13 50 0 28 -4 105 -8 173 -8
120 -8 124 15 148 12 13 28 24 35 24 6 0 17 7 25 16 7 8 21 13 31 11 10 -3 21
-1 24 4 3 5 10 7 15 4 5 -4 9 2 9 11 0 14 3 15 12 6 9 -9 9 -30 0 -95z m3018
88 c7 -8 17 -12 23 -8 6 3 7 1 3 -5 -4 -7 -1 -12 8 -12 9 0 16 7 16 15 0 13
10 15 48 13 26 -1 52 1 59 5 6 4 14 3 18 -3 3 -6 -2 -13 -12 -16 -10 -4 -45
-19 -78 -34 -33 -15 -72 -31 -87 -34 -16 -4 -27 -10 -27 -14 3 -20 -3 -32 -16
-32 -8 0 -15 5 -15 10 0 6 7 10 15 10 8 0 12 6 9 13 -7 19 14 33 59 41 20 4
37 11 37 17 0 6 -8 5 -21 -2 -17 -9 -23 -8 -30 2 -6 10 -9 11 -9 2 0 -7 -4
-13 -10 -13 -5 0 -7 6 -4 14 3 7 -2 21 -11 30 -14 13 -14 16 -2 16 8 0 20 -7
27 -15z m-642 -23 c-10 -2 -18 -9 -18 -15 0 -7 -4 -6 -9 3 -14 20 -5 29 22 22
18 -5 19 -7 5 -10z m98 -19 c-10 -10 -107 -12 -100 -2 3 5 28 9 56 9 28 0 48
-3 44 -7z m434 -1 c0 -5 15 -7 32 -6 39 3 55 -5 37 -17 -20 -12 -41 -11 -33 2
4 7 0 9 -13 5 -12 -4 -25 -1 -33 9 -8 10 -9 15 -1 15 6 0 11 -4 11 -8z m-3543
-24 c-3 -8 -6 -5 -6 6 -1 11 2 17 5 13 3 -3 4 -12 1 -19z m3128 2 c-3 -5 -16
-10 -28 -9 -20 1 -20 2 3 9 14 4 26 8 28 9 2 1 0 -3 -3 -9z m-75 -10 c-14 -4
-21 -8 -16 -9 5 -1 3 -7 -3 -15 -17 -20 1 -29 42 -21 l32 6 -34 -16 c-32 -15
-35 -14 -59 10 -13 14 -29 25 -33 25 -5 0 -9 4 -9 9 0 9 37 17 85 18 15 1 14
-1 -5 -7z m100 -5 c-7 -9 -15 -13 -19 -10 -3 3 1 10 9 15 21 14 24 12 10 -5z
m313 8 c-7 -2 -19 -2 -25 0 -7 3 -2 5 12 5 14 0 19 -2 13 -5z m-3543 -13 c0
-5 -5 -10 -11 -10 -5 0 -7 5 -4 10 3 6 8 10 11 10 2 0 4 -4 4 -10z m3285 0
c-3 -5 -12 -7 -20 -3 -21 7 -19 13 6 13 11 0 18 -4 14 -10z m351 -8 c-10 -2
-22 0 -28 6 -6 6 0 7 19 4 21 -5 23 -7 9 -10z m-3488 -5 c13 -15 3 -33 -18
-32 -20 0 -27 45 -7 45 8 0 19 -6 25 -13z m3017 3 c-3 -5 -14 -10 -23 -10 -15
0 -15 2 -2 10 20 13 33 13 25 0z m370 0 c3 -5 1 -10 -4 -10 -6 0 -11 5 -11 10
0 6 2 10 4 10 3 0 8 -4 11 -10z m-308 -26 c-3 -3 -12 -4 -19 -1 -8 3 -5 6 6 6
11 1 17 -2 13 -5z m383 0 c0 -3 -7 -12 -15 -20 -13 -14 -15 -13 -15 5 0 12 6
21 15 21 8 0 15 -3 15 -6z m-620 -21 c2 -2 -2 -8 -10 -13 -12 -8 -9 -10 10
-11 14 0 19 -3 12 -6 -20 -8 -85 29 -69 39 11 7 45 2 57 -9z m740 -15 c10 -6
5 -8 -18 -4 -20 4 -31 2 -27 -4 10 -16 -11 -11 -25 5 -7 9 -19 14 -27 11 -7
-3 -13 -1 -13 4 0 11 88 2 110 -12z m-3237 -183 c8 -198 28 -397 52 -500 7
-33 19 -87 25 -120 7 -33 27 -104 46 -158 36 -106 52 -211 34 -222 -7 -4 -9
-19 -5 -35 5 -23 2 -30 -16 -35 -40 -13 -53 -33 -39 -59 17 -32 9 -70 -15 -74
-26 -5 -55 -41 -55 -71 0 -13 -7 -29 -15 -35 -11 -8 -13 -18 -7 -41 7 -24 5
-34 -10 -49 -11 -12 -15 -23 -9 -29 12 -12 -17 -61 -43 -73 -13 -5 -22 -20
-24 -37 -2 -16 -10 -31 -18 -34 -8 -3 -14 -10 -14 -16 0 -5 -11 -25 -25 -43
-16 -21 -28 -53 -32 -83 -5 -44 -3 -50 17 -56 17 -5 28 -1 46 18 27 29 31 57
9 57 -17 0 -19 9 -6 29 5 8 16 11 26 7 11 -4 28 3 46 19 16 13 36 22 44 19 9
-4 21 9 35 35 27 53 108 115 129 98 11 -9 13 -9 8 -1 -4 7 0 14 8 18 19 7 23
-2 20 -46 -3 -38 8 -51 19 -22 8 22 8 69 -1 78 -5 4 -6 47 -5 96 3 68 0 96
-13 124 -16 33 -16 38 -2 54 8 9 18 27 21 38 10 34 42 19 71 -33 14 -25 23
-49 20 -53 -3 -4 1 -10 8 -13 7 -3 39 -48 70 -100 31 -52 97 -147 147 -211 49
-64 96 -132 104 -151 8 -19 20 -35 27 -35 6 0 8 -7 5 -16 -3 -8 -2 -13 3 -9
15 8 51 -58 45 -82 -8 -29 27 -63 56 -56 14 4 30 -2 46 -18 39 -36 174 -206
174 -218 0 -6 4 -11 8 -11 8 0 132 -163 132 -174 0 -8 15 -27 45 -59 11 -12
33 -40 48 -63 15 -22 36 -50 47 -62 11 -12 20 -27 20 -33 0 -7 14 -25 31 -40
17 -15 30 -30 30 -33 -3 -19 0 -26 11 -24 7 2 21 -16 33 -39 11 -24 25 -43 31
-43 18 0 24 -25 24 -91 0 -44 -4 -61 -15 -65 -12 -5 -10 -10 9 -25 21 -17 24
-27 25 -104 1 -47 -2 -91 -6 -98 -4 -6 -6 -65 -4 -130 3 -111 2 -119 -21 -142
-12 -14 -33 -25 -46 -25 -24 0 -82 54 -82 77 0 7 -4 13 -10 13 -5 0 -10 5 -10
11 0 6 -21 38 -47 72 -25 34 -46 67 -46 74 0 7 -2 11 -5 8 -8 -8 -83 104 -77
115 3 5 0 7 -8 4 -8 -3 -18 -1 -22 5 -3 6 -30 11 -59 11 -51 0 -57 3 -115 55
-76 68 -162 112 -255 131 -78 17 -91 26 -187 137 -89 103 -227 218 -372 310
-16 10 -26 24 -24 31 3 7 1 19 -4 27 -7 11 -9 11 -9 -3 0 -10 -2 -18 -5 -18
-3 0 -45 20 -93 44 -48 23 -116 50 -152 59 -199 48 -245 56 -349 61 -99 5
-117 9 -138 28 l-23 21 5 306 c6 425 12 604 25 836 6 110 13 274 16 365 5 204
9 226 34 233 13 3 18 10 14 21 -3 9 -1 16 5 16 6 0 11 10 11 23 0 29 15 51 29
43 6 -4 13 4 17 19 3 14 14 30 23 35 14 8 14 9 -2 10 -10 0 -16 4 -13 9 9 15
46 0 46 -18 0 -38 -14 -60 -41 -70 -32 -11 -38 -28 -13 -38 8 -3 13 -12 10
-19 -3 -8 -2 -14 3 -14 8 0 10 -7 14 -55 1 -23 -2 -30 -15 -29 -10 1 -18 -2
-18 -7 0 -5 6 -9 13 -9 8 0 8 -3 -2 -9 -14 -9 -13 -14 14 -61 11 -19 15 -21
15 -7 0 9 4 25 10 35 18 30 33 77 31 91 -5 27 10 85 18 72 5 -7 7 12 4 43 -2
34 0 56 7 56 5 0 10 -10 10 -22 0 -31 10 -16 15 22 5 41 10 46 30 26 23 -23
33 -20 37 12 2 19 8 26 21 24 13 -2 17 4 17 27 0 16 -7 36 -15 45 -8 8 -12 21
-9 29 6 17 54 30 54 15 0 -5 5 -6 10 -3 6 3 10 19 10 35 0 33 17 49 26 25 4
-9 -1 -34 -11 -56 -14 -30 -16 -44 -7 -63 7 -16 7 -46 2 -92 -12 -89 -12 -94
0 -94 6 0 10 5 10 12 0 6 10 22 22 35 13 14 21 34 19 53 -1 16 -1 40 -1 53 0
12 0 40 -1 62 -3 103 2 147 19 167 7 9 10 22 7 30 -6 14 31 67 65 95 8 7 31
12 50 10 l35 -2 8 -190z m-406 119 c-12 -13 -27 9 -26 39 l0 32 16 -32 c9 -18
14 -36 10 -39z m3081 54 c8 -10 4 -13 -16 -14 -15 -1 -21 1 -13 3 11 5 11 7 0
14 -11 7 -11 9 2 9 9 0 21 -6 27 -12z m549 -30 c-3 -8 -6 -5 -6 6 -1 11 2 17
5 13 3 -3 4 -12 1 -19z m2073 12 c0 -5 -4 -10 -10 -10 -5 0 -10 5 -10 10 0 6
5 10 10 10 6 0 10 -4 10 -10z m-2093 -22 c-3 -8 -6 -5 -6 6 -1 11 2 17 5 13 3
-3 4 -12 1 -19z m-582 2 c-3 -5 -18 -10 -33 -9 l-27 1 25 8 c35 11 42 11 35 0z
m70 0 c3 -5 -1 -10 -9 -10 -9 0 -16 5 -16 10 0 6 4 10 9 10 6 0 13 -4 16 -10z
m145 0 c0 -5 -4 -10 -10 -10 -5 0 -10 5 -10 10 0 6 5 10 10 10 6 0 10 -4 10
-10z m47 -12 c-3 -8 -6 -5 -6 6 -1 11 2 17 5 13 3 -3 4 -12 1 -19z m3043 -8
c16 -31 33 -275 26 -385 -9 -131 -36 -259 -56 -263 -15 -2 -217 156 -232 182
-4 7 8 44 27 82 19 38 60 127 92 198 55 125 104 206 123 206 5 0 14 -9 20 -20z
m-3280 -8 c0 -4 20 -16 45 -27 25 -11 45 -23 45 -27 0 -5 7 -8 16 -8 8 0 12 5
9 10 -10 16 1 12 16 -6 11 -14 6 -15 -44 -11 -31 2 -67 11 -80 20 -28 18 -43
57 -21 57 8 0 14 -3 14 -8z m57 2 c-3 -3 -12 -4 -19 -1 -8 3 -5 6 6 6 11 1 17
-2 13 -5z m619 -3 c-3 -5 -15 -7 -26 -4 -28 7 -25 13 6 13 14 0 23 -4 20 -9z
m104 -11 c0 -6 -11 -8 -27 -4 -19 5 -25 3 -18 -4 6 -6 21 -12 34 -14 l23 -3
-23 -20 c-18 -15 -20 -15 -10 -2 12 15 11 17 -7 17 -24 0 -38 -16 -20 -23 8
-3 6 -6 -5 -6 -10 -1 -15 -6 -12 -11 4 -6 11 -7 17 -4 7 4 8 2 4 -4 -4 -7 -15
-8 -29 -3 -12 4 -32 7 -44 6 -12 -1 -20 2 -17 7 3 4 1 8 -5 8 -5 0 -11 -5 -13
-11 -2 -6 -17 -12 -33 -12 -17 0 -24 -2 -17 -4 6 -3 10 -9 7 -13 -3 -5 -12 -7
-21 -3 -19 7 0 33 25 33 14 0 14 2 1 10 -11 7 -7 10 18 10 17 0 32 3 32 8 0 4
-18 7 -40 7 -22 0 -39 5 -37 10 1 6 22 10 47 10 36 0 45 -4 44 -18 -1 -9 1
-17 5 -18 3 0 16 -2 29 -5 12 -2 22 1 22 6 0 6 -9 10 -20 10 -13 0 -20 6 -19
18 0 10 3 12 6 5 2 -7 16 -13 30 -13 15 0 23 5 20 13 -2 6 -11 11 -21 9 -9 -2
-16 2 -16 8 0 5 20 10 45 10 25 0 45 -5 45 -10z m-573 -6 c-3 -3 -12 -4 -19
-1 -8 3 -5 6 6 6 11 1 17 -2 13 -5z m107 -100 c11 -4 16 -19 16 -46 0 -52 -55
-131 -169 -244 -130 -127 -223 -175 -270 -137 -26 21 -40 106 -41 254 0 102 4
107 87 119 32 5 89 16 127 25 120 28 221 40 250 29z m365 -8 c9 -11 9 -16 -1
-22 -7 -4 -10 -4 -6 1 4 4 3 14 -3 22 -6 7 -9 13 -6 13 2 0 10 -6 16 -14z
m212 -17 c16 -17 29 -35 29 -39 0 -11 80 -146 125 -211 19 -28 36 -57 36 -65
1 -8 2 -20 3 -26 1 -7 -9 -25 -23 -40 -30 -33 -68 -36 -206 -13 -49 8 -94 15
-98 15 -5 0 -6 4 -3 9 3 4 -5 6 -18 4 -13 -3 -27 1 -31 8 -6 9 -3 11 9 6 16
-6 16 -4 -1 24 -19 32 -55 69 -39 39 6 -11 4 -10 -9 2 -16 15 -17 22 -8 53 7
20 9 48 7 63 -3 15 -2 23 2 19 11 -11 34 13 34 35 0 23 122 148 146 148 9 0
29 -14 45 -31z m-4011 17 c0 -2 -8 -10 -17 -17 -16 -13 -17 -12 -4 4 13 16 21
21 21 13z m870 -10 c0 -8 -5 -27 -10 -42 -16 -41 -86 -318 -105 -412 -13 -67
-14 -89 -5 -112 21 -50 49 -61 182 -66 66 -3 130 -10 142 -16 11 -7 27 -11 34
-10 7 2 11 -1 10 -5 -5 -16 35 -84 63 -108 16 -13 46 -27 66 -31 39 -7 42 -9
101 -63 20 -18 54 -45 74 -58 44 -30 76 -69 112 -141 30 -60 94 -135 107 -126
5 3 12 -2 15 -10 3 -9 14 -16 23 -16 29 -1 101 -39 101 -54 0 -8 -28 -37 -62
-64 -75 -60 -132 -119 -180 -187 -42 -59 -141 -221 -170 -278 l-20 -41 -37 40
c-51 57 -268 333 -319 407 -23 34 -50 71 -59 81 -9 11 -29 49 -46 85 -16 36
-43 85 -59 109 -51 75 -114 226 -194 468 -24 75 -64 264 -84 397 -11 76 -11
80 10 99 18 17 33 24 61 27 4 1 17 12 30 25 13 13 41 29 62 37 20 7 37 17 37
22 0 4 4 6 9 3 5 -4 11 -3 13 1 3 8 77 51 91 52 4 1 7 -5 7 -13z m2730 -1 c0
-8 -7 -15 -15 -15 -16 0 -20 12 -8 23 11 12 23 8 23 -8z m30 -18 c0 -5 -4 -5
-10 -2 -5 3 -10 14 -10 23 0 15 2 15 10 2 5 -8 10 -19 10 -23z m39 9 c10 -12
8 -13 -8 -9 -12 3 -18 9 -15 14 7 12 10 11 23 -5z m85 -35 c-5 -6 -33 31 -33
44 -1 6 8 -1 19 -15 10 -14 17 -27 14 -29z m-3642 -47 c-9 -12 -19 -18 -20
-13 -6 16 5 36 21 36 13 0 13 -3 -1 -23z m-32 -4 c0 -5 -5 -10 -11 -10 -5 0
-7 5 -4 10 3 6 8 10 11 10 2 0 4 -4 4 -10z m3721 -247 c13 -16 12 -17 -3 -4
-10 7 -18 15 -18 17 0 8 8 3 21 -13z m472 -114 c13 -6 34 -27 48 -47 13 -20
56 -80 95 -132 140 -187 278 -384 281 -399 1 -9 -8 -36 -21 -61 -72 -142 -129
-302 -145 -408 -13 -86 0 -263 25 -354 9 -31 14 -63 11 -71 -10 -28 -96 -79
-121 -73 -21 5 -194 169 -292 276 -23 25 -74 77 -115 115 -141 135 -321 337
-475 535 -92 119 -94 122 -100 207 -7 109 2 116 157 127 26 2 52 7 59 11 9 5
11 4 6 -4 -5 -8 -1 -10 16 -7 12 3 47 7 76 10 29 2 70 13 92 25 21 11 47 24
57 29 65 32 87 47 121 78 20 18 40 34 45 34 4 0 7 4 7 9 0 12 59 71 70 71 5 0
13 6 17 14 7 12 25 20 55 25 4 0 18 -4 31 -10z m-1166 -41 c5 -7 17 -55 27
-106 9 -52 26 -116 36 -143 18 -44 18 -50 4 -56 -34 -13 -60 14 -99 103 -48
112 -53 181 -15 201 31 16 35 16 47 1z m2951 -90 c76 -58 135 -109 145 -125 4
-5 -76 -93 -177 -194 -113 -114 -203 -213 -234 -261 -56 -84 -97 -192 -108
-287 -4 -38 -13 -66 -24 -76 -16 -15 -17 -13 -16 22 1 33 -2 38 -22 37 -18 0
-23 6 -28 38 -8 47 -17 53 -48 33 -20 -13 -24 -13 -29 -2 -7 18 19 140 37 176
18 34 75 86 139 125 26 17 59 48 74 70 28 41 28 41 27 207 l-1 167 32 15 c18
9 56 36 84 61 29 25 58 46 66 46 7 0 45 -24 83 -52z m-314 -115 c13 -45 27
-208 21 -240 -10 -56 -50 -106 -112 -143 -109 -64 -142 -107 -163 -218 -7 -34
-16 -62 -19 -62 -4 0 -20 26 -35 58 l-27 57 20 90 c24 107 28 235 7 235 -9 0
-15 -22 -19 -79 -8 -106 -25 -171 -42 -164 -25 9 -165 271 -165 309 0 19 41
38 161 74 369 112 364 111 373 83z m-2724 -120 c30 -14 123 -52 205 -85 83
-33 155 -65 162 -70 24 -19 -22 -168 -89 -288 -92 -164 -321 -410 -382 -410
-15 0 -31 40 -40 105 -18 125 -59 369 -72 424 -8 35 -28 83 -44 108 -46 68
-41 88 38 161 106 99 116 102 222 55z m3250 3 c0 -29 -60 -152 -109 -224 -117
-172 -304 -375 -359 -389 -15 -3 -29 0 -39 10 -13 13 -13 21 2 73 40 141 153
284 386 489 88 78 119 89 119 41z m-3615 -236 c-4 -7 3 -9 19 -6 18 3 26 0 26
-10 0 -8 7 -14 15 -14 13 0 30 -21 35 -45 2 -5 5 -16 8 -24 6 -16 -24 -76 -88
-176 -25 -38 -63 -101 -84 -140 -21 -38 -49 -85 -62 -102 -23 -30 -30 -33 -78
-33 -101 0 -215 28 -288 72 -72 43 -158 120 -158 142 0 8 -7 27 -15 42 -22 43
-20 57 6 43 15 -8 19 -8 15 0 -10 15 7 14 23 -1 11 -11 13 -10 8 4 -4 13 -2
15 10 11 10 -4 14 -2 9 5 -3 6 3 13 14 17 11 3 20 11 20 16 0 5 3 8 8 7 16 -4
88 14 110 28 12 8 27 12 32 9 6 -3 10 -2 10 3 0 5 18 12 39 16 39 6 102 37
130 64 7 7 26 16 42 19 16 3 27 9 24 13 -2 4 28 13 68 20 40 7 76 17 82 22 13
11 27 10 20 -2z m2152 -117 c67 -91 185 -233 207 -251 l25 -19 -58 -90 c-64
-98 -100 -125 -141 -103 -23 12 -23 18 -4 93 9 37 -16 36 -39 -2 -24 -41 -21
-78 8 -106 31 -32 82 -33 120 -4 14 12 51 59 81 105 29 45 62 85 71 87 67 18
73 18 84 -7 9 -20 8 -32 -5 -60 -9 -18 -16 -43 -16 -54 0 -11 -13 -45 -29 -75
-16 -30 -45 -106 -66 -170 -22 -70 -46 -126 -62 -143 -23 -25 -28 -26 -106
-22 -69 3 -94 10 -159 41 -75 36 -77 39 -98 94 -33 89 -43 151 -37 238 10 152
131 485 177 485 10 0 31 -17 47 -37z m-4286 -124 c-6 -24 -9 -28 -10 -12 -1
24 9 56 16 50 2 -3 0 -20 -6 -38z m1393 -116 c4 -10 4 -14 0 -10 -4 4 -13 2
-21 -4 -10 -9 -13 -7 -13 10 0 25 25 28 34 4z m-168 -125 c-3 -13 -6 -26 -6
-30 0 -15 -28 -8 -34 8 -3 8 -2 12 3 9 5 -3 12 -1 16 5 3 5 1 10 -5 10 -6 0
-8 5 -5 10 3 6 13 10 22 10 11 0 14 -6 9 -22z m274 1 c0 -6 -4 -7 -10 -4 -5 3
-10 11 -10 16 0 6 5 7 10 4 6 -3 10 -11 10 -16z m3579 9 c0 -7 -4 -21 -8 -31
-6 -17 -8 -17 -20 -3 -11 13 -11 19 -1 31 15 18 30 20 29 3z m-3643 -23 c-3
-9 0 -15 9 -15 8 0 15 -4 15 -9 0 -13 72 -20 93 -9 9 5 16 5 15 1 -1 -4 6 -23
15 -41 21 -39 14 -89 -8 -59 -10 14 -14 15 -18 4 -3 -8 -1 -19 5 -25 8 -8 8
-16 -2 -26 -15 -19 -30 -12 -30 13 0 21 -36 71 -51 71 -23 0 -59 -54 -59 -88
0 -29 -2 -33 -15 -22 -12 10 -15 10 -15 0 0 -23 -13 -1 -16 26 -2 20 0 24 9
15 16 -16 25 -14 29 7 2 9 -5 23 -17 30 -20 12 -20 13 0 10 11 -2 28 5 37 14
21 21 68 24 87 6 11 -11 11 -9 0 9 -12 20 -55 28 -69 13 -3 -3 -21 2 -40 13
-25 12 -28 17 -12 13 20 -4 23 -1 19 16 -7 24 1 48 15 48 6 0 8 -7 4 -15z m91
-9 c0 -8 -6 -12 -15 -9 -11 5 -11 7 0 14 7 5 13 9 14 9 0 0 1 -6 1 -14z m-97
-78 c0 -5 -4 -6 -10 -3 -5 3 -10 1 -10 -4 0 -16 -17 -13 -23 3 -4 9 2 14 19
14 13 0 24 -5 24 -10z m3266 -113 c-6 -52 -74 -183 -106 -206 -14 -9 -40 -20
-58 -23 l-32 -6 16 38 c9 20 29 80 46 132 17 52 39 112 51 132 l20 37 34 -32
c31 -29 34 -36 29 -72z m-3446 75 c0 -5 -5 -10 -11 -10 -5 0 -7 5 -4 10 3 6 8
10 11 10 2 0 4 -4 4 -10z m100 0 c0 -5 -8 -10 -17 -10 -15 0 -16 2 -3 10 19
12 20 12 20 0z m1270 -30 c0 -5 -4 -10 -10 -10 -5 0 -10 5 -10 10 0 6 5 10 10
10 6 0 10 -4 10 -10z m-1260 -10 c0 -5 -2 -10 -4 -10 -3 0 -8 5 -11 10 -3 6
-1 10 4 10 6 0 11 -4 11 -10z m234 -41 c-3 -5 -10 -7 -15 -3 -5 3 -7 10 -3 15
3 5 10 7 15 3 5 -3 7 -10 3 -15z m56 13 c0 -5 -7 -9 -15 -9 -8 0 -15 4 -15 9
0 4 7 8 15 8 8 0 15 -4 15 -8z m-36 -31 c3 -5 -5 -11 -19 -13 -28 -6 -35 8 -7
15 9 3 18 5 19 6 1 0 4 -3 7 -8z m3133 2 c-4 -3 0 -11 9 -17 14 -10 13 -15 -6
-39 -12 -15 -28 -27 -35 -27 -12 0 -11 8 3 45 9 25 21 45 26 45 5 0 6 -3 3 -7z
m-2219 -36 c3 -12 -3 -17 -20 -16 -13 0 -18 3 -11 5 7 3 9 12 6 21 -4 11 -2
14 8 11 8 -3 15 -12 17 -21z m-1142 -45 c-19 -19 -65 -22 -82 -7 -12 10 16 18
75 22 22 1 22 0 7 -15z m1119 -2 c3 -5 1 -10 -4 -10 -6 0 -11 5 -11 10 0 6 2
10 4 10 3 0 8 -4 11 -10z m19 -55 c3 -8 1 -15 -4 -15 -6 0 -10 7 -10 15 0 8 2
15 4 15 2 0 6 -7 10 -15z m-1589 -5 c3 -5 -1 -10 -10 -10 -9 0 -13 5 -10 10 3
6 8 10 10 10 2 0 7 -4 10 -10z m55 -10 c0 -5 -5 -10 -11 -10 -5 0 -7 5 -4 10
3 6 8 10 11 10 2 0 4 -4 4 -10z m-12 -81 c-2 -14 -6 -13 -22 9 -11 14 -14 22
-8 18 8 -5 12 1 13 16 l0 23 10 -25 c5 -13 9 -32 7 -41z m2072 47 c0 -8 -4
-18 -10 -21 -5 -3 -10 0 -10 9 0 8 -6 17 -12 19 -7 3 -3 6 10 6 13 1 22 -5 22
-13z m-1715 -16 c3 -5 -1 -10 -10 -10 -9 0 -13 5 -10 10 3 6 8 10 10 10 2 0 7
-4 10 -10z m1685 0 c0 -5 -5 -10 -10 -10 -7 0 -7 -6 0 -20 6 -11 21 -20 33
-20 18 0 19 -2 7 -10 -10 -6 -11 -10 -2 -10 23 0 12 -35 -22 -68 -18 -18 -39
-50 -46 -71 -17 -51 -47 -90 -58 -73 -6 9 -21 0 -55 -33 -26 -25 -53 -45 -59
-45 -7 0 2 13 19 29 29 26 30 30 15 45 -15 15 -15 16 3 16 16 0 17 2 6 9 -12
8 -9 15 14 43 15 18 37 39 49 47 33 22 44 40 39 62 -5 18 -45 36 -70 31 -19
-4 -16 19 5 35 28 22 55 36 48 25 -3 -5 3 -21 13 -33 17 -21 20 -22 26 -7 4 9
2 25 -4 36 -6 11 -7 22 -4 26 10 10 53 7 53 -4z m-540 -15 c-14 -17 -30 -20
-30 -6 0 5 8 12 18 14 9 3 19 5 21 6 2 0 -2 -6 -9 -14z m-72 -2 c-26 -7 -22
-24 5 -20 12 2 16 2 10 0 -7 -3 -13 -9 -13 -15 0 -6 -6 -6 -15 2 -22 19 -18
40 8 39 16 -1 18 -2 5 -6z m-1040 -27 c16 -18 16 -18 -6 -7 -12 7 -32 11 -44
9 -12 -2 -23 2 -25 9 -6 18 55 9 75 -11z m-161 -12 c-3 -3 -12 -4 -19 -1 -8 3
-5 6 6 6 11 1 17 -2 13 -5z m93 -8 c0 -2 -7 -7 -16 -10 -8 -3 -12 -2 -9 4 6
10 25 14 25 6z m1090 -10 c0 -15 -18 -31 -26 -23 -7 7 7 37 17 37 5 0 9 -6 9
-14z m-1193 -2 c-3 -3 -12 -4 -19 -1 -8 3 -5 6 6 6 11 1 17 -2 13 -5z m143 2
c0 -2 -7 -6 -15 -10 -8 -3 -15 -1 -15 4 0 6 7 10 15 10 8 0 15 -2 15 -4z m25
-5 c3 -5 2 -12 -3 -15 -5 -3 -9 1 -9 9 0 17 3 19 12 6z m22 -13 c-3 -8 -6 -5
-6 6 -1 11 2 17 5 13 3 -3 4 -12 1 -19z m-157 -26 c0 -4 -9 -8 -21 -9 -17 -2
-18 1 -9 12 12 14 30 12 30 -3z m160 -12 c22 -22 4 -29 -19 -7 -11 10 -14 9
-18 -1 -7 -18 -35 -44 -41 -37 -3 3 4 14 16 25 27 26 28 34 2 27 -11 -3 -20
-1 -20 4 0 17 60 9 80 -11z m-225 -38 c-3 -3 -11 0 -18 7 -9 10 -8 11 6 5 10
-3 15 -9 12 -12z m60 -2 c3 -5 -1 -10 -9 -10 -9 0 -16 5 -16 10 0 6 4 10 9 10
6 0 13 -4 16 -10z m1219 -75 c9 -24 -20 -39 -44 -22 -21 15 -21 15 7 25 l28
10 -27 7 c-16 4 -28 13 -28 20 0 7 -3 22 -7 32 -4 10 9 1 29 -20 20 -21 39
-44 42 -52z m-1044 60 c0 -12 -19 -12 -23 0 -4 9 -1 12 9 8 7 -3 14 -7 14 -8z
m-231 -22 c41 -40 49 -83 15 -83 -16 0 -19 17 -4 22 5 2 7 13 3 26 -5 22 -7
22 -24 6 -11 -9 -19 -15 -19 -11 0 3 -3 13 -7 23 -5 13 -3 15 7 9 10 -6 12 -4
7 8 -8 22 -1 21 22 0z m49 -19 c-4 -3 -12 5 -18 18 -12 22 -12 22 6 6 10 -10
15 -20 12 -24z m145 19 c-8 -19 -83 -17 -83 2 0 12 10 15 44 13 30 -2 42 -7
39 -15z m1130 -15 c-13 -12 -26 -19 -29 -15 -4 4 1 14 12 22 29 22 41 18 17
-7z m-1179 -47 c-5 -21 -4 -24 7 -13 18 16 29 15 29 -3 0 -8 5 -15 11 -15 5 0
7 -4 4 -10 -9 -15 -71 -12 -84 3 -6 8 -8 17 -5 20 4 3 -5 9 -20 13 -36 9 -33
27 4 22 20 -3 30 0 30 8 0 8 6 11 15 8 10 -4 13 -14 9 -33z m1882 -8 c-6 -6
-36 9 -36 18 0 5 9 4 20 -3 10 -7 18 -14 16 -15z m-815 -36 c-7 -7 -14 -8 -21
-1 -6 6 -2 10 12 11 16 2 18 -1 9 -10z m232 -47 c20 0 25 -4 20 -17 -4 -11 -3
-14 5 -9 7 4 12 1 12 -7 0 -8 7 -20 15 -27 20 -17 19 -27 -6 -41 -15 -8 -19
-8 -15 0 5 7 -1 11 -14 11 -12 0 -18 -4 -15 -10 3 -6 -1 -7 -9 -4 -9 3 -16 10
-16 15 0 5 -6 9 -14 9 -7 0 -20 8 -27 18 -13 16 -13 16 6 2 19 -15 19 -15 2
13 -11 16 -13 27 -6 27 7 0 9 10 4 27 -6 26 -6 27 13 10 10 -9 30 -17 45 -17z
m-133 0 c0 -5 -4 -10 -10 -10 -5 0 -10 5 -10 10 0 6 5 10 10 10 6 0 10 -4 10
-10z m-177 -44 c111 -37 230 -100 317 -166 115 -88 108 -69 115 -275 10 -290
43 -464 114 -602 11 -23 21 -49 21 -56 0 -16 -67 -74 -123 -107 l-36 -21 -48
27 c-118 65 -224 154 -342 285 -74 82 -101 119 -106 146 -15 81 -85 190 -170
265 -36 32 -55 41 -90 43 -66 5 -103 15 -142 37 -23 14 -38 17 -45 10 -17 -17
8 -48 51 -65 49 -20 54 -28 35 -55 -19 -28 -26 -28 -75 4 -50 31 -89 108 -89
175 0 55 11 66 65 70 69 4 138 -12 208 -49 45 -23 71 -32 78 -25 13 13 -1 24
-77 62 -49 24 -200 63 -251 64 -17 0 12 54 36 67 48 25 210 -2 294 -50 58 -32
87 -38 87 -17 0 15 -128 90 -180 105 -19 6 -63 14 -98 17 -41 5 -62 11 -59 19
2 6 12 10 21 10 10 -1 16 6 17 20 0 11 3 16 5 9 4 -9 11 -9 29 -1 42 19 175
-6 272 -52 48 -22 88 -38 91 -35 9 8 -31 46 -75 72 -50 29 -133 53 -185 53
-28 0 -36 4 -32 14 10 25 67 35 179 32 86 -3 127 -9 188 -30z m542 -18 c6 -4
2 -8 -7 -8 -10 0 -18 7 -18 17 0 9 3 12 8 7 4 -5 12 -12 17 -16z m-318 -10
c-3 -8 -6 -5 -6 6 -1 11 2 17 5 13 3 -3 4 -12 1 -19z m1736 3 c24 -11 51 -29
62 -41 19 -21 173 -100 194 -100 5 0 11 -5 13 -11 2 -5 10 -11 19 -12 8 -2 30
-12 49 -23 19 -11 55 -28 80 -39 25 -10 50 -23 57 -28 26 -19 350 -180 417
-207 39 -15 91 -40 116 -54 55 -31 354 -269 459 -366 9 -8 28 -23 43 -32 62
-40 290 -242 372 -329 88 -93 203 -236 241 -300 11 -18 27 -45 36 -59 19 -31
38 -378 21 -389 -6 -3 -229 -4 -496 -1 -398 4 -488 7 -495 19 -6 8 1 34 17 70
76 164 13 300 -218 471 -188 140 -375 248 -735 423 -44 21 -161 78 -260 127
-99 48 -224 108 -278 133 -94 44 -120 62 -124 82 -1 6 -5 19 -9 29 -5 14 -4
17 5 12 15 -10 43 23 36 42 -3 7 -1 11 4 7 5 -3 19 17 32 45 12 27 27 46 32
43 6 -4 8 0 4 10 -3 9 0 23 8 31 8 8 15 17 15 20 0 4 16 29 35 56 19 27 35 57
35 65 0 8 18 55 40 104 22 49 40 94 40 100 0 6 5 11 10 11 6 0 10 7 10 15 0 7
6 18 13 22 7 4 19 23 26 41 16 38 19 38 74 13z m-1333 4 c0 -11 -24 -55 -31
-55 -4 0 -5 -8 -2 -18 3 -13 -2 -18 -16 -18 -16 0 -18 3 -8 15 10 12 8 13 -15
7 -18 -4 -28 -2 -28 4 0 6 5 8 10 5 6 -3 10 -1 10 5 0 6 7 10 16 8 10 -2 19 2
21 8 2 7 -7 12 -22 12 -14 0 -25 -5 -25 -11 0 -6 -3 -7 -7 -4 -13 13 32 46 65
46 17 1 32 -1 32 -4z m122 -27 c-9 -9 -15 -9 -24 0 -9 9 -7 12 12 12 19 0 21
-3 12 -12z m-390 -43 c-3 -17 -10 -25 -20 -23 -25 5 -25 27 0 37 12 6 24 10
24 10 1 1 -1 -10 -4 -24z m24 -32 c-10 -10 -19 5 -10 18 6 11 8 11 12 0 2 -7
1 -15 -2 -18z m131 -86 c-8 -7 -19 -21 -25 -32 -8 -14 -11 -15 -12 -5 0 19 44
72 49 59 1 -6 -4 -16 -12 -22z m-2610 -29 c42 -39 27 -108 -28 -127 -46 -16
-57 -14 -84 14 -32 31 -32 66 1 104 32 38 76 42 111 9z m3721 -20 c17 -17 15
-28 -4 -28 -8 0 -12 5 -9 10 3 6 1 10 -4 10 -6 0 -11 5 -11 10 0 14 13 13 28
-2z m-488 -8 c0 -5 -4 -10 -10 -10 -5 0 -10 5 -10 10 0 6 5 10 10 10 6 0 10
-4 10 -10z m70 -18 c0 -5 -7 -9 -15 -9 -8 0 -12 4 -9 9 3 4 9 8 15 8 5 0 9 -4
9 -8z m80 -23 c0 -6 -4 -7 -10 -4 -5 3 -10 11 -10 16 0 6 5 7 10 4 6 -3 10
-11 10 -16z m-520 -19 c0 -5 -2 -10 -4 -10 -3 0 -8 5 -11 10 -3 6 -1 10 4 10
6 0 11 -4 11 -10z m30 -4 c0 -3 -4 -8 -10 -11 -5 -3 -10 -1 -10 4 0 6 5 11 10
11 6 0 10 -2 10 -4z m358 -11 c3 -3 -17 -5 -44 -4 -38 1 -43 3 -24 8 25 8 58
6 68 -4z m52 -15 c8 -5 11 -10 5 -10 -5 0 -17 5 -25 10 -8 5 -10 10 -5 10 6 0
17 -5 25 -10z m37 -12 c-3 -8 -6 -5 -6 6 -1 11 2 17 5 13 3 -3 4 -12 1 -19z
m-307 -54 c0 -8 -5 -12 -10 -9 -6 4 -8 11 -5 16 9 14 15 11 15 -7z m-1230
-186 c0 -9 3 -8 10 2 8 12 10 12 16 -3 3 -9 9 -15 14 -12 4 2 7 -12 6 -33 -1
-27 -5 -36 -16 -34 -10 1 -9 -3 4 -13 11 -8 16 -15 10 -15 -10 1 -51 30 -46
33 9 6 -12 36 -22 30 -6 -4 -5 1 3 11 8 9 10 16 5 15 -21 -4 -26 2 -14 16 15
18 30 19 30 3z m-1083 -63 c8 -23 -17 -133 -36 -156 -11 -14 -40 -24 -101 -34
-247 -39 -518 -144 -732 -281 -38 -24 -68 -41 -68 -39 0 3 -11 -5 -25 -17 -13
-11 -42 -31 -63 -44 l-39 -23 -33 24 c-19 14 -34 34 -35 45 -2 26 86 110 223
211 37 27 73 55 81 61 32 27 245 129 258 124 8 -3 12 -2 9 2 -3 5 41 21 97 36
56 15 113 32 127 38 26 11 282 66 313 67 10 1 20 -6 24 -14z m195 -155 c122
-203 211 -332 279 -404 74 -80 278 -228 374 -272 66 -30 224 -84 247 -84 27 0
238 -74 238 -84 0 -6 -27 -33 -60 -59 -53 -43 -69 -50 -152 -68 -142 -29 -335
-26 -474 7 -143 33 -177 49 -276 130 -196 159 -272 239 -330 346 -35 64 -52
172 -44 283 7 94 45 299 65 349 11 28 12 28 32 10 11 -10 57 -79 101 -154z
m-1512 140 c14 -14 20 -33 20 -65 0 -39 -4 -46 -30 -60 -39 -20 -62 -19 -88 5
-58 55 -22 132 66 139 6 1 21 -8 32 -19z m2325 -66 c-21 -16 -37 -14 -43 4 -5
16 40 33 53 20 7 -6 3 -14 -10 -24z m1327 1 c3 -13 2 -22 -2 -20 -11 7 -20 45
-10 45 4 0 10 -11 12 -25z m48 -15 c0 -5 -2 -10 -4 -10 -3 0 -8 5 -11 10 -3 6
-1 10 4 10 6 0 11 -4 11 -10z m2774 -21 c47 -37 23 -109 -36 -109 -57 0 -83
43 -57 93 23 43 52 48 93 16z m-4016 -33 c-8 -6 -19 -20 -25 -30 -9 -17 -10
-16 -10 7 0 15 3 27 8 27 4 0 11 10 15 22 6 20 7 20 17 3 7 -14 6 -21 -5 -29z
m-205 20 c4 -10 -1 -13 -16 -10 -21 4 -21 4 -2 -4 11 -5 26 -7 33 -5 20 8 14
-8 -13 -33 -14 -13 -25 -29 -25 -36 -1 -8 -7 -5 -16 7 -8 11 -17 19 -19 18
-13 -7 -25 -1 -25 12 0 8 -4 15 -8 15 -4 0 -8 8 -9 19 -1 13 5 18 20 17 12 -1
31 1 42 5 29 11 32 11 38 -5z m1450 7 c-7 -2 -19 -2 -25 0 -7 3 -2 5 12 5 14
0 19 -2 13 -5z m-342 -46 c-10 -9 -11 -8 -5 6 3 10 9 15 12 12 3 -3 0 -11 -7
-18z m54 3 c3 -5 1 -10 -4 -10 -6 0 -11 5 -11 10 0 6 2 10 4 10 3 0 8 -4 11
-10z m-1330 -41 c11 -16 1 -19 -13 -3 -7 8 -8 14 -3 14 5 0 13 -5 16 -11z m45
-30 c0 -5 -4 -9 -10 -9 -5 0 -10 7 -10 16 0 8 5 12 10 9 6 -3 10 -10 10 -16z
m190 -14 c0 -8 -4 -15 -10 -15 -5 0 -10 7 -10 15 0 8 5 15 10 15 6 0 10 -7 10
-15z m2070 -1 c0 -2 -7 -4 -15 -4 -8 0 -15 4 -15 10 0 5 7 7 15 4 8 -4 15 -8
15 -10z m-2180 -33 c0 -4 -9 -7 -20 -7 -20 0 -25 7 -14 19 7 7 34 -2 34 -12z
m-959 -8 c1 -10 1 -21 0 -25 0 -5 3 -8 8 -8 6 0 6 -12 0 -30 -6 -16 -16 -27
-21 -24 -6 4 -14 1 -18 -5 -4 -7 -13 -13 -21 -14 -8 -2 -18 -5 -24 -9 -5 -3
-53 -22 -105 -43 -124 -49 -420 -200 -440 -225 -3 -3 -33 -23 -68 -44 -73 -44
-85 -42 -171 19 -56 41 -65 68 -30 98 58 50 372 227 402 227 7 0 30 9 51 20
22 10 43 17 47 14 5 -3 9 -1 9 3 0 8 86 32 140 40 14 1 43 7 65 12 22 5 70 9
108 10 57 1 67 -2 68 -16z m669 -12 c0 -12 -20 -25 -27 -18 -7 7 6 27 18 27 5
0 9 -4 9 -9z m2700 -12 c0 -6 7 -8 16 -5 9 4 13 2 8 -5 -4 -7 1 -9 15 -4 16 5
23 1 33 -20 8 -18 16 -24 27 -19 31 13 4 24 388 -164 29 -14 62 -33 73 -44 11
-10 20 -16 20 -13 0 12 185 -91 244 -135 l58 -45 -4 -145 c-5 -144 -5 -145 9
-80 8 36 16 89 18 118 2 30 6 56 9 59 10 11 7 -347 -4 -367 -9 -16 -20 -17
-107 -13 -54 3 -138 11 -188 20 -49 8 -135 21 -190 28 -55 8 -145 26 -200 40
-55 14 -127 33 -160 41 -121 30 -245 85 -245 108 0 23 31 139 43 161 6 11 10
28 8 38 -1 9 2 17 7 17 6 0 8 10 4 22 -3 14 -1 19 6 14 6 -3 16 2 21 13 14 26
14 42 -1 38 -6 -1 -13 7 -15 18 -3 14 -1 16 5 7 5 -8 14 18 25 75 12 57 14 89
7 91 -9 3 -15 144 -6 153 10 10 76 8 76 -2z m-285 -39 c-4 -13 -2 -20 7 -20 8
0 23 -6 33 -14 18 -13 18 -17 6 -40 -17 -32 -31 -34 -31 -4 0 12 -7 29 -16 39
-14 16 -12 59 2 59 3 0 2 -9 -1 -20z m-1585 -30 c0 -5 -2 -10 -4 -10 -3 0 -8
5 -11 10 -3 6 -1 10 4 10 6 0 11 -4 11 -10z m-885 -39 c123 -57 213 -146 278
-278 42 -84 29 -97 -44 -47 -137 94 -325 259 -365 319 -35 54 20 56 131 6z
m465 24 c0 -11 -12 -13 -52 -11 -62 4 -61 4 -54 14 2 4 27 8 55 9 38 2 51 -1
51 -12z m300 5 c0 -5 -4 -10 -10 -10 -5 0 -10 5 -10 10 0 6 5 10 10 10 6 0 10
-4 10 -10z m1390 -10 c0 -5 -4 -10 -10 -10 -5 0 -10 5 -10 10 0 6 5 10 10 10
6 0 10 -4 10 -10z m-40 -28 c0 -15 -2 -15 -10 -2 -13 20 -13 33 0 25 6 -3 10
-14 10 -23z m497 -4 c-3 -7 -5 -2 -5 12 0 14 2 19 5 13 2 -7 2 -19 0 -25z
m-673 6 c3 -8 2 -12 -4 -9 -6 3 -10 10 -10 16 0 14 7 11 14 -7z m-4107 -12
c14 -9 29 -62 17 -62 -5 1 -16 16 -25 35 -16 35 -15 41 8 27z m2561 -33 c-3
-8 -7 -3 -11 10 -4 17 -3 21 5 13 5 -5 8 -16 6 -23z m1422 -4 c0 -8 -2 -15 -4
-15 -2 0 -6 7 -10 15 -3 8 -1 15 4 15 6 0 10 -7 10 -15z m140 -5 c0 -11 -2
-20 -4 -20 -2 0 -6 9 -9 20 -3 11 -1 20 4 20 5 0 9 -9 9 -20z m-2611 -2 c4 6
16 9 28 6 17 -5 23 -16 28 -56 8 -58 6 -60 -75 -84 -30 -9 -102 -39 -160 -67
-58 -27 -108 -49 -112 -49 -5 1 -8 -3 -8 -8 0 -6 -6 -10 -14 -10 -12 0 -33
-16 -90 -68 -14 -13 -17 -13 -12 -2 4 8 -1 5 -11 -6 -11 -12 -35 -27 -55 -34
-33 -12 -39 -11 -81 15 -25 16 -44 32 -41 36 2 4 0 11 -6 14 -12 7 3 22 62 63
66 45 109 72 118 72 4 0 10 4 12 9 5 13 190 109 255 132 32 12 74 23 93 26 19
3 39 9 45 14 6 6 11 6 14 -2 2 -8 5 -8 10 -1z m-1569 -44 c0 -8 -5 -12 -10 -9
-6 4 -8 11 -5 16 9 14 15 11 15 -7z m4075 6 c3 -5 1 -10 -4 -10 -6 0 -11 5
-11 10 0 6 2 10 4 10 3 0 8 -4 11 -10z m-1145 -10 c0 -5 -5 -10 -11 -10 -5 0
-7 5 -4 10 3 6 8 10 11 10 2 0 4 -4 4 -10z m-345 -10 c3 -6 -1 -7 -9 -4 -18 7
-21 14 -7 14 6 0 13 -4 16 -10z m1255 -37 c219 -137 422 -243 670 -349 419
-179 654 -242 1230 -330 52 -8 137 -23 189 -34 52 -10 98 -17 102 -14 4 2 10
0 13 -5 3 -5 -1 -12 -10 -15 -9 -3 -374 -5 -812 -3 -869 2 -806 -2 -887 62
-297 235 -313 249 -427 400 -106 140 -193 335 -150 335 4 0 41 -21 82 -47z
m320 17 c-12 -8 -11 -10 7 -10 12 0 23 5 25 12 2 6 10 -3 17 -20 21 -51 71
-54 65 -4 -3 22 -2 21 6 -6 6 -18 19 -38 30 -45 13 -8 20 -22 19 -42 -1 -21
-3 -24 -6 -10 -7 27 -23 46 -34 39 -5 -2 -19 2 -31 10 -14 9 -29 12 -37 7 -9
-6 -10 -11 -2 -15 6 -4 11 -19 11 -34 0 -15 -4 -22 -8 -16 -4 6 -15 11 -26 11
-18 0 -18 -1 0 -14 10 -7 22 -13 28 -13 5 0 7 -2 4 -5 -3 -3 -22 2 -41 11 -33
16 -35 19 -19 31 9 8 12 12 5 9 -17 -9 -24 7 -26 56 -1 43 9 75 21 63 4 -3 0
-10 -8 -15z m74 -6 c4 -10 1 -14 -6 -12 -15 5 -23 28 -10 28 5 0 13 -7 16 -16z
m76 12 c0 -3 -4 -8 -10 -11 -5 -3 -10 -1 -10 4 0 6 5 11 10 11 6 0 10 -2 10
-4z m-4233 -43 c-3 -10 -5 -4 -5 12 0 17 2 24 5 18 2 -7 2 -21 0 -30z m2473 0
c0 -18 -35 -16 -50 2 -11 13 -9 15 19 13 17 -1 31 -8 31 -15z m1485 -13 c3 -5
1 -10 -4 -10 -6 0 -11 5 -11 10 0 6 2 10 4 10 3 0 8 -4 11 -10z m81 -10 c14 0
20 -31 8 -43 -13 -13 -41 12 -38 35 3 32 5 35 11 21 2 -7 11 -13 19 -13z m224
10 c0 -5 -5 -10 -11 -10 -5 0 -7 5 -4 10 3 6 8 10 11 10 2 0 4 -4 4 -10z
m-4344 -51 c-15 -22 -15 -22 -13 -1 0 11 5 18 9 16 4 -3 8 3 9 13 0 10 3 13 6
6 2 -7 -2 -22 -11 -34z m3201 9 c-3 -8 -6 -5 -6 6 -1 11 2 17 5 13 3 -3 4 -12
1 -19z m-422 -19 c-4 -5 -1 -9 4 -9 6 0 11 -4 11 -10 0 -5 -7 -10 -15 -10 -9
0 -15 10 -15 26 0 14 4 23 10 19 6 -4 8 -11 5 -16z m2029 -23 c-3 -21 -9 -35
-11 -32 -3 3 -2 21 1 42 4 20 10 34 12 31 3 -3 2 -21 -2 -41z m-1958 19 c-3
-8 -1 -15 4 -15 6 0 10 -7 10 -16 0 -9 8 -23 17 -30 10 -7 14 -16 10 -21 -5
-4 -17 3 -28 16 -10 13 -19 20 -19 15 0 -4 -9 2 -20 14 -24 25 -25 33 -5 26
11 -5 13 -2 9 10 -4 11 -1 16 11 16 11 0 15 -5 11 -15z m361 -29 c-2 -19 -5
-37 -8 -41 -3 -3 -5 8 -4 25 1 16 -2 30 -7 30 -4 0 -8 5 -8 10 0 6 6 10 14 10
11 0 14 -10 13 -34z m-326 1 c-10 -9 -11 -8 -5 6 3 10 9 15 12 12 3 -3 0 -11
-7 -18z m913 -80 c32 -49 56 -91 53 -94 -8 -7 -164 117 -172 137 -6 15 32 52
50 47 6 -2 36 -42 69 -90z m566 89 c0 -3 -4 -8 -10 -11 -5 -3 -10 -1 -10 4 0
6 5 11 10 11 6 0 10 -2 10 -4z m-1623 -38 c-3 -8 -6 -5 -6 6 -1 11 2 17 5 13
3 -3 4 -12 1 -19z m49 -16 c-4 -3 -12 0 -19 7 -9 9 -9 14 3 21 11 7 16 5 18
-6 2 -9 1 -18 -2 -22z m661 16 c-3 -26 -26 -69 -27 -51 0 7 -7 10 -15 7 -17
-7 -30 18 -21 41 4 11 11 13 31 5 20 -7 25 -6 25 5 0 8 2 15 5 15 3 0 4 -10 2
-22z m893 2 c0 -5 -2 -10 -4 -10 -3 0 -8 5 -11 10 -3 6 -1 10 4 10 6 0 11 -4
11 -10z m380 0 c0 -5 -5 -10 -11 -10 -5 0 -7 5 -4 10 3 6 8 10 11 10 2 0 4 -4
4 -10z m-4711 -37 c0 -25 -1 -26 -9 -8 -12 27 -12 35 0 35 6 0 10 -12 9 -27z
m2823 18 c8 11 9 11 6 1 -4 -16 -22 -18 -24 -3 -2 8 -1 7 3 0 4 -8 8 -7 15 2z
m1955 -13 c-3 -8 -6 -5 -6 6 -1 11 2 17 5 13 3 -3 4 -12 1 -19z m-1300 -10
c-3 -8 -6 -5 -6 6 -1 11 2 17 5 13 3 -3 4 -12 1 -19z m1143 12 c0 -5 -2 -10
-4 -10 -3 0 -8 5 -11 10 -3 6 -1 10 4 10 6 0 11 -4 11 -10z m-1254 -37 c4 -13
3 -27 0 -31 -4 -3 -9 4 -13 16 -3 12 -9 22 -14 22 -5 0 -9 7 -9 15 0 23 29 6
36 -22z m-446 17 c0 -5 -4 -10 -10 -10 -5 0 -10 5 -10 10 0 6 5 10 10 10 6 0
10 -4 10 -10z m291 -47 c3 -16 2 -44 -1 -63 l-6 -35 -7 34 c-10 46 -9 91 2 91
5 0 10 -12 12 -27z m89 11 c0 -17 -22 -14 -28 4 -2 7 3 12 12 12 9 0 16 -7 16
-16z m-2830 -47 c0 -16 -3 -17 -15 -7 -8 7 -15 24 -15 39 1 25 1 25 15 7 8
-11 15 -29 15 -39z m2650 28 c0 -8 -4 -15 -10 -15 -5 0 -10 7 -10 15 0 8 5 15
10 15 6 0 10 -7 10 -15z m1637 -7 c-3 -8 -6 -5 -6 6 -1 11 2 17 5 13 3 -3 4
-12 1 -19z m-3044 -53 c40 -83 101 -185 129 -215 13 -14 44 -52 70 -85 25 -34
53 -67 62 -74 9 -7 13 -17 10 -22 -3 -5 0 -9 6 -9 6 0 8 -5 5 -10 -10 -16
-615 -13 -616 3 -5 44 -4 69 2 73 4 2 22 33 40 69 50 98 233 338 254 332 6 -2
23 -30 38 -62z m2762 55 c3 -6 -1 -7 -9 -4 -18 7 -21 14 -7 14 6 0 13 -4 16
-10z m155 0 c0 -5 -2 -10 -4 -10 -3 0 -8 5 -11 10 -3 6 -1 10 4 10 6 0 11 -4
11 -10z m-4633 -22 c-3 -8 -6 -5 -6 6 -1 11 2 17 5 13 3 -3 4 -12 1 -19z
m1847 -25 c29 -27 111 -90 182 -142 133 -97 184 -139 184 -153 0 -16 -111 -7
-177 14 -81 27 -138 79 -199 184 -88 152 -85 183 10 97z m1537 20 c-12 -20
-14 -14 -5 12 4 9 9 14 11 11 3 -2 0 -13 -6 -23z m-111 7 c0 -5 -4 -10 -10
-10 -5 0 -10 5 -10 10 0 6 5 10 10 10 6 0 10 -4 10 -10z m-173 -20 c-3 -11 -1
-23 5 -26 9 -6 -8 -23 -23 -24 -11 0 -7 55 5 62 17 12 19 10 13 -12z m-1578
-26 c-14 -13 -15 -13 -13 8 1 13 3 25 3 28 1 2 6 -1 13 -8 10 -9 9 -16 -3 -28z
m1809 27 c11 -7 11 -9 -1 -14 -16 -6 -27 0 -27 15 0 10 11 10 28 -1z m-3022
-101 c27 -86 19 -200 -15 -200 -4 0 -12 26 -19 58 -13 64 -5 269 9 222 4 -14
15 -50 25 -80z m2814 90 c0 -5 -5 -10 -11 -10 -5 0 -7 5 -4 10 3 6 8 10 11 10
2 0 4 -4 4 -10z m1614 -34 c-7 -28 -9 -29 -39 -16 -19 8 -19 9 3 9 15 1 26 8
29 21 3 12 7 19 10 17 2 -3 1 -16 -3 -31z m1361 24 c3 -5 1 -10 -4 -10 -6 0
-11 5 -11 10 0 6 2 10 4 10 3 0 8 -4 11 -10z m-6021 -140 c6 -59 6 -63 -8 -45
-8 11 -12 24 -9 28 3 5 -3 14 -13 21 -13 10 -16 22 -11 54 3 23 1 40 -3 37 -4
-3 -6 5 -3 16 6 20 8 19 23 -12 10 -19 21 -63 24 -99z m3646 120 c0 -5 -5 -10
-11 -10 -5 0 -7 5 -4 10 3 6 8 10 11 10 2 0 4 -4 4 -10z m74 0 c17 -6 26 -17
27 -32 0 -13 3 -18 5 -12 4 9 13 8 33 -2 46 -23 61 -46 58 -91 -2 -37 -17 -52
-17 -17 0 13 -12 18 -32 15 -4 0 -5 6 -2 14 4 8 1 15 -5 15 -6 0 -11 -4 -11
-10 0 -5 -4 -10 -10 -10 -5 0 -10 9 -10 19 0 11 -4 23 -10 26 -5 3 -10 1 -10
-4 0 -6 -6 -11 -13 -11 -22 0 -36 -41 -23 -70 6 -14 16 -29 23 -33 7 -4 13
-16 13 -25 0 -10 5 -23 12 -30 7 -7 11 -31 9 -55 -2 -38 1 -46 23 -61 23 -14
26 -14 26 -1 0 8 5 15 11 15 5 0 7 4 4 10 -3 6 1 7 9 4 11 -4 16 0 17 12 0 11
2 27 4 36 2 11 -2 15 -11 11 -8 -3 -14 1 -14 8 0 7 -2 10 -5 7 -3 -3 -1 -18 5
-34 l11 -29 -22 23 c-20 22 -21 27 -9 63 10 29 16 36 23 27 6 -9 7 -6 4 10 -3
12 -1 22 4 22 5 0 10 -8 10 -17 4 -41 6 -49 17 -76 15 -34 16 -77 2 -77 -5 0
-10 -9 -10 -20 0 -19 -6 -20 -60 -19 -55 2 -60 4 -60 24 0 13 -7 28 -15 35 -8
7 -15 10 -15 7 0 -3 -13 -1 -30 4 l-30 11 19 25 c11 13 17 31 14 39 -3 9 2 14
17 14 12 0 18 4 15 10 -4 6 -10 8 -14 5 -5 -2 -19 4 -32 16 -21 18 -22 23 -11
53 17 46 16 62 -3 46 -10 -9 -15 -9 -15 -1 0 6 -3 10 -7 9 -15 -3 -43 14 -43
27 0 7 7 15 15 19 8 3 15 12 15 21 0 8 7 15 15 15 8 0 15 -9 15 -20 0 -13 -7
-20 -20 -20 -19 0 -27 -20 -14 -33 9 -9 44 37 44 58 0 9 5 13 10 10 6 -4 10
-14 9 -23 -1 -10 -1 -26 0 -37 1 -19 1 -19 15 1 8 11 14 29 13 40 -2 13 3 18
17 16 11 -2 15 1 11 8 -3 6 -12 10 -18 9 -24 -3 -37 1 -37 11 0 13 12 13 44 0z
m-2298 -13 c3 -3 -2 -19 -12 -36 -13 -21 -20 -27 -26 -18 -6 8 -10 5 -14 -10
-10 -37 -20 -26 -18 20 0 23 2 44 3 47 2 7 60 5 67 -3z m4599 -46 c-6 -5 -25
10 -25 20 0 5 6 4 14 -3 8 -7 12 -15 11 -17z m-5575 -12 c0 -24 -26 -25 -39 0
-13 23 -6 30 20 24 10 -3 19 -14 19 -24z m3090 18 c25 7 37 -21 20 -42 -7 -9
-15 -13 -18 -10 -8 8 -29 -39 -22 -50 11 -17 11 -67 0 -60 -6 3 -10 15 -10 26
0 11 -5 17 -10 14 -6 -3 -13 0 -16 9 -3 8 -19 19 -35 25 -26 9 -29 8 -29 -10
0 -16 -3 -18 -19 -10 -10 6 -21 7 -25 4 -3 -3 -6 1 -6 10 0 9 7 17 15 17 7 0
19 8 24 18 10 16 12 16 27 -3 16 -20 16 -20 9 3 -4 13 -2 22 4 22 6 0 8 7 5
15 -4 8 -1 15 6 15 8 0 10 -11 6 -32 -3 -18 -3 -27 0 -20 9 18 27 15 20 -4 -5
-14 -4 -15 9 -4 8 7 15 29 16 49 0 20 3 31 5 25 3 -7 14 -10 24 -7z m-40 -38
c0 -6 -4 -7 -10 -4 -5 3 -10 11 -10 16 0 6 5 7 10 4 6 -3 10 -11 10 -16z
m-270 -8 c0 -6 -4 -13 -10 -16 -5 -3 -10 1 -10 9 0 9 5 16 10 16 6 0 10 -4 10
-9z m-2774 -16 c-3 -8 -1 -15 4 -15 6 0 10 -4 10 -10 0 -17 -28 1 -33 21 -3
12 0 19 10 19 9 0 13 -6 9 -15z m3429 -5 c16 -17 16 -20 3 -15 -9 4 -19 13
-22 21 -7 19 -2 18 19 -6z m-2705 -12 c0 -5 -4 -6 -10 -3 -5 3 -10 1 -10 -5 0
-6 -4 -9 -10 -5 -14 9 0 34 16 28 8 -3 14 -9 14 -15z m80 -11 c0 -15 -38 -40
-50 -32 -5 3 -8 14 -7 25 1 18 2 18 19 3 17 -15 18 -15 18 6 0 12 4 19 10 16
6 -3 10 -12 10 -18z m1800 -74 c100 -170 96 -162 80 -173 -8 -5 -54 -10 -101
-10 -70 0 -88 3 -93 16 -3 9 -6 59 -6 112 0 93 1 97 27 118 15 12 32 20 38 18
5 -3 30 -39 55 -81z m561 74 c-1 -12 -15 -9 -19 4 -3 6 1 10 8 8 6 -3 11 -8
11 -12z m-2291 -7 c0 -5 -4 -10 -10 -10 -5 0 -10 5 -10 10 0 6 5 10 10 10 6 0
10 -4 10 -10z m1950 -11 c0 -18 -2 -19 -15 -9 -8 7 -15 16 -15 21 0 5 7 9 15
9 9 0 15 -9 15 -21z m190 -10 c7 -11 9 -24 5 -27 -7 -7 -35 25 -35 40 0 16 19
8 30 -13z m300 -5 c0 -8 -4 -12 -10 -9 -5 3 -10 13 -10 21 0 8 5 12 10 9 6 -3
10 -13 10 -21z m2268 8 c2 -7 -7 -12 -22 -12 -16 0 -26 6 -26 15 0 18 42 15
48 -3z m-5193 -2 c3 -5 1 -10 -4 -10 -6 0 -11 5 -11 10 0 6 2 10 4 10 3 0 8
-4 11 -10z m317 -42 c-2 -27 -10 -49 -17 -52 -8 -3 -12 0 -10 7 2 7 9 32 15
56 14 53 18 50 12 -11z m2178 31 c0 -6 -4 -7 -10 -4 -5 3 -10 11 -10 16 0 6 5
7 10 4 6 -3 10 -11 10 -16z m459 14 c0 -5 -4 -17 -9 -28 -8 -18 -9 -17 -9 8
-1 15 4 27 9 27 6 0 10 -3 9 -7z m18 -25 c-3 -7 -5 -2 -5 12 0 14 2 19 5 13 2
-7 2 -19 0 -25z m2268 22 c3 -5 1 -10 -4 -10 -6 0 -11 5 -11 10 0 6 2 10 4 10
3 0 8 -4 11 -10z m-5738 -22 c-3 -8 -6 -5 -6 6 -1 11 2 17 5 13 3 -3 4 -12 1
-19z m3263 6 c0 -8 -4 -12 -10 -9 -5 3 -10 10 -10 16 0 5 5 9 10 9 6 0 10 -7
10 -16z m-3512 -12 c3 -9 -2 -13 -14 -10 -9 1 -19 9 -22 16 -3 9 2 13 14 10 9
-1 19 -9 22 -16z m379 -14 c-3 -7 -5 -2 -5 12 0 14 2 19 5 13 2 -7 2 -19 0
-25z m337 11 c-3 -5 -10 -7 -15 -3 -5 3 -7 10 -3 15 3 5 10 7 15 3 5 -3 7 -10
3 -15z m386 -11 c0 -24 3 -29 9 -18 6 8 7 19 4 25 -3 5 0 5 7 -1 15 -15 4 -54
-15 -54 -7 0 -15 -3 -18 -7 -2 -5 -2 -3 -1 4 2 7 -1 15 -7 18 -5 4 -7 19 -5
33 6 34 4 32 16 32 6 0 10 -15 10 -32z m2230 22 c0 -5 7 -10 15 -10 10 0 15
-10 15 -30 0 -16 -3 -30 -7 -31 -5 0 -16 -2 -25 -4 -9 -2 -21 2 -27 8 -8 11
-15 49 -12 70 2 11 41 8 41 -3z m475 1 c3 -5 1 -12 -5 -16 -5 -3 -10 1 -10 9
0 18 6 21 15 7z m-2790 -21 c-4 -12 -2 -20 5 -20 6 0 8 -4 5 -10 -11 -18 -22
-11 -20 13 4 34 5 37 11 37 3 0 2 -9 -1 -20z m2042 -32 c-2 -13 -4 -5 -4 17
-1 22 1 32 4 23 2 -10 2 -28 0 -40z m113 42 c0 -5 -2 -10 -4 -10 -3 0 -8 5
-11 10 -3 6 -1 10 4 10 6 0 11 -4 11 -10z m301 -3 c-1 -4 -1 -18 -1 -32 0 -16
-6 -25 -15 -25 -8 0 -15 9 -15 21 0 12 4 17 11 13 8 -4 9 1 4 16 -5 15 -3 21
5 18 6 -2 11 -7 11 -11z m371 -25 c-3 -22 5 -38 34 -70 34 -38 41 -42 73 -37
20 3 30 2 24 -1 -7 -3 -13 -15 -13 -25 0 -11 -4 -17 -10 -14 -6 3 -7 -1 -4 -9
4 -11 0 -16 -10 -16 -9 0 -16 8 -16 18 0 9 -5 24 -10 32 -9 13 -11 13 -21 0
-9 -13 -10 -13 -6 2 6 17 -15 43 -26 32 -9 -10 -35 59 -32 87 4 39 5 40 13 35
5 -3 7 -18 4 -34z m2093 29 c3 -5 1 -12 -5 -16 -5 -3 -10 1 -10 9 0 18 6 21
15 7z m-5682 -37 c13 -70 20 -95 28 -100 5 -3 9 -21 9 -40 0 -27 -4 -34 -20
-34 -11 0 -20 5 -20 11 0 5 -4 8 -9 5 -16 -11 -23 72 -10 129 13 57 16 62 22
29z m2847 11 c0 -8 -4 -15 -10 -15 -5 0 -11 -12 -11 -27 -1 -19 -3 -22 -6 -10
-6 24 5 67 17 67 6 0 10 -7 10 -15z m70 -17 c0 -6 -7 -5 -15 2 -8 7 -15 17
-15 22 0 6 7 5 15 -2 8 -7 15 -17 15 -22z m35 1 c-5 -38 -13 -48 -25 -30 -9
16 -2 42 14 53 16 11 15 11 11 -23z m-3038 -1 c-3 -8 -6 -5 -6 6 -1 11 2 17 5
13 3 -3 4 -12 1 -19z m993 12 c0 -5 -4 -10 -10 -10 -5 0 -10 5 -10 10 0 6 5
10 10 10 6 0 10 -4 10 -10z m4720 -24 c0 -5 -7 -3 -15 4 -8 7 -12 17 -9 22 7
10 24 -9 24 -26z m64 9 c-4 -8 -11 -15 -16 -15 -6 0 -5 6 2 15 7 8 14 15 16
15 2 0 1 -7 -2 -15z m-3156 -66 c4 -79 -7 -89 -97 -89 -86 0 -98 8 -68 43 12
15 26 27 30 27 4 0 20 11 35 24 65 58 76 66 86 63 6 -2 12 -32 14 -68z m776
55 c3 -8 -1 -22 -9 -30 -12 -13 -14 -11 -12 16 2 33 11 39 21 14z m-134 -20
c0 -22 -2 -25 -15 -14 -17 14 -21 35 -5 25 6 -3 10 -1 10 4 0 6 2 11 5 11 3 0
5 -12 5 -26z m-1125 -16 c-4 -18 -11 -35 -16 -36 -5 -2 -7 -8 -4 -12 3 -5 0
-12 -6 -16 -9 -5 -10 -1 -7 14 3 12 0 29 -8 39 -16 21 -18 37 -4 28 6 -3 10
-1 10 4 0 6 9 11 21 11 18 0 20 -4 14 -32z m315 22 c0 -5 -5 -10 -11 -10 -5 0
-7 5 -4 10 3 6 8 10 11 10 2 0 4 -4 4 -10z m-2163 -6 c-3 -3 -12 -4 -19 -1 -8
3 -5 6 6 6 11 1 17 -2 13 -5z m1762 -38 c1 -5 -5 -3 -13 4 -8 6 -12 19 -9 27
6 14 8 14 14 -3 4 -10 8 -23 8 -28z m226 2 c10 -24 20 -46 22 -49 2 -4 -3 -9
-11 -12 -10 -4 -13 -1 -10 8 7 17 -13 55 -28 55 -9 0 -9 -3 0 -12 7 -7 12 -16
12 -22 0 -5 -3 -6 -7 -2 -4 3 -12 -6 -19 -21 l-12 -28 -2 30 c0 17 -7 39 -15
49 -24 32 -18 46 18 46 30 0 36 -5 52 -42z m909 24 c-5 -4 -15 -18 -22 -32 -7
-14 -11 -18 -8 -9 2 9 0 22 -5 30 -7 11 -12 12 -28 2 -17 -11 -19 -10 -14 3 4
11 15 15 35 12 16 -3 31 -1 34 4 4 5 9 7 12 3 4 -3 2 -9 -4 -13z m-2394 -2 c0
-5 -4 -10 -10 -10 -5 0 -10 5 -10 10 0 6 5 10 10 10 6 0 10 -4 10 -10z m100 0
c0 -5 6 -7 13 -4 16 6 43 -23 33 -33 -4 -4 -11 -2 -15 5 -10 16 -51 -18 -51
-42 0 -9 -5 -16 -11 -16 -7 0 -9 9 -6 23 6 21 6 21 -8 3 -8 -11 -15 -26 -15
-33 0 -8 -9 -5 -26 9 -26 23 -15 40 11 18 12 -10 15 -9 15 7 0 10 7 28 15 39
8 12 11 24 8 28 -3 3 3 6 15 6 12 0 22 -4 22 -10z m2420 0 c0 -5 -2 -10 -4
-10 -3 0 -8 5 -11 10 -3 6 -1 10 4 10 6 0 11 -4 11 -10z m340 -25 c0 -5 -5 -3
-10 5 -5 8 -10 20 -10 25 0 6 5 3 10 -5 5 -8 10 -19 10 -25z m-3275 15 c-3 -5
-11 -10 -16 -10 -6 0 -7 5 -4 10 3 6 11 10 16 10 6 0 7 -4 4 -10z m1995 6 c0
-2 -7 -7 -16 -10 -8 -3 -12 -2 -9 4 6 10 25 14 25 6z m870 -16 c0 -5 -4 -10
-10 -10 -5 0 -10 5 -10 10 0 6 5 10 10 10 6 0 10 -4 10 -10z m110 -4 c0 -8 -7
-16 -15 -20 -13 -4 -14 -2 -5 14 13 23 20 26 20 6z m-2533 -18 c-3 -8 -6 -5
-6 6 -1 11 2 17 5 13 3 -3 4 -12 1 -19z m2723 12 c0 -5 -4 -10 -10 -10 -5 0
-10 5 -10 10 0 6 5 10 10 10 6 0 10 -4 10 -10z m-3129 -23 c-13 -13 -26 -3
-16 12 3 6 11 8 17 5 6 -4 6 -10 -1 -17z m1789 8 c0 -8 -4 -15 -10 -15 -5 0
-10 7 -10 15 0 8 5 15 10 15 6 0 10 -7 10 -15z m1190 -17 c0 -12 -3 -18 -7
-14 -11 10 -12 36 -2 36 5 0 9 -10 9 -22z m258 -3 c-3 -3 -9 2 -12 12 -6 14
-5 15 5 6 7 -7 10 -15 7 -18z m-438 5 c0 -5 -4 -10 -10 -10 -5 0 -10 5 -10 10
0 6 5 10 10 10 6 0 10 -4 10 -10z m330 6 c0 -3 -4 -8 -10 -11 -5 -3 -10 -1
-10 4 0 6 5 11 10 11 6 0 10 -2 10 -4z m-80 -21 c0 -8 -4 -15 -9 -15 -13 0
-22 16 -14 24 11 11 23 6 23 -9z m250 -20 c0 -8 -9 -13 -20 -12 -22 1 -27 23
-7 30 16 6 27 -1 27 -18z m-660 -4 c0 -4 -7 -8 -15 -8 -8 0 -15 6 -15 13 0 8
6 11 15 8 8 -4 15 -9 15 -13z m-2260 -4 c0 -8 -6 -14 -14 -14 -8 0 -12 6 -9
14 7 17 23 17 23 0z m2456 -39 c4 -6 3 -8 -3 -5 -5 3 -26 2 -46 -3 -37 -8 -77
-4 -77 9 0 12 118 12 126 -1z m183 8 c-11 -10 -89 -15 -89 -6 0 5 21 10 47 10
25 0 44 -2 42 -4z m536 -6 c13 -6 15 -9 5 -9 -8 0 -22 4 -30 9 -18 12 -2 12
25 0z m3 -87 c-10 -2 -26 -2 -35 0 -10 3 -2 5 17 5 19 0 27 -2 18 -5z m269 1
c-3 -3 -12 -4 -19 -1 -8 3 -5 6 6 6 11 1 17 -2 13 -5z m-317 -35 c0 -6 -4 -7
-10 -4 -5 3 -10 11 -10 16 0 6 5 7 10 4 6 -3 10 -11 10 -16z m50 11 c0 -5 -5
-10 -11 -10 -5 0 -7 5 -4 10 3 6 8 10 11 10 2 0 4 -4 4 -10z m60 0 c0 -5 -5
-10 -11 -10 -5 0 -7 5 -4 10 3 6 8 10 11 10 2 0 4 -4 4 -10z m180 6 c0 -3 -4
-8 -10 -11 -5 -3 -10 -1 -10 4 0 6 5 11 10 11 6 0 10 -2 10 -4z"/>
<path d="M2335 7033 c-9 -27 -20 -30 -29 -7 -4 9 -9 14 -13 11 -3 -4 0 -13 7
-22 7 -8 9 -15 6 -15 -4 0 -1 -6 6 -13 14 -16 49 -11 47 7 -1 6 -5 22 -9 36
l-8 25 -7 -22z"/>
<path d="M2078 6943 c-9 -10 -13 -26 -9 -35 6 -16 7 -16 29 0 15 12 21 24 16
35 -8 22 -17 21 -36 0z"/>
<path d="M2145 6830 c3 -5 8 -10 11 -10 2 0 4 5 4 10 0 6 -5 10 -11 10 -5 0
-7 -4 -4 -10z"/>
<path d="M2007 6675 c3 -8 9 -12 14 -9 12 7 11 11 -5 17 -10 4 -13 1 -9 -8z"/>
<path d="M5457 7099 c4 -15 8 -17 14 -8 8 14 3 29 -11 29 -4 0 -6 -9 -3 -21z"/>
<path d="M5276 7008 c-9 -13 -14 -17 -11 -10 4 8 -2 12 -19 12 -14 0 -26 -4
-26 -9 0 -5 -9 -13 -20 -16 -17 -5 -20 -14 -19 -53 2 -47 2 -47 37 -47 30 0
36 4 39 25 6 42 11 50 34 50 14 0 19 5 16 14 -3 7 -1 18 5 24 11 11 3 32 -11
32 -5 0 -16 -10 -25 -22z"/>
<path d="M5400 6955 c0 -8 2 -15 4 -15 2 0 12 -3 21 -6 15 -6 15 -4 4 15 -16
25 -29 27 -29 6z"/>
<path d="M6221 6724 c0 -11 3 -14 6 -6 3 7 2 16 -1 19 -3 4 -6 -2 -5 -13z"/>
<path d="M4247 6349 c7 -7 15 -10 18 -7 3 3 -2 9 -12 12 -14 6 -15 5 -6 -5z"/>
<path d="M4283 6335 c0 -7 6 -11 14 -8 7 3 13 6 13 8 0 2 -6 5 -13 8 -8 3 -14
-1 -14 -8z"/>
<path d="M4610 6270 c0 -5 5 -10 10 -10 6 0 10 5 10 10 0 6 -4 10 -10 10 -5 0
-10 -4 -10 -10z"/>
<path d="M3447 5844 c-9 -9 21 -36 33 -29 17 10 11 35 -8 35 -10 0 -21 -3 -25
-6z"/>
<path d="M3070 5560 c0 -5 5 -10 11 -10 5 0 7 5 4 10 -3 6 -8 10 -11 10 -2 0
-4 -4 -4 -10z"/>
<path d="M724 5731 c-11 -12 -2 -27 18 -28 21 -2 37 11 38 29 0 8 -48 7 -56
-1z"/>
<path d="M531 5043 c0 -49 3 -84 10 -88 15 -10 19 -3 22 46 3 35 7 43 21 41
15 -3 15 0 4 18 -11 17 -14 18 -16 5 -6 -27 -27 -10 -33 26 -4 23 -7 7 -8 -48z"/>
<path d="M7095 5600 c-3 -5 -1 -10 4 -10 6 0 11 5 11 10 0 6 -2 10 -4 10 -3 0
-8 -4 -11 -10z"/>
<path d="M7236 3642 c-2 -4 -1 -14 5 -22 7 -12 9 -10 9 8 0 23 -5 28 -14 14z"/>
<path d="M6255 2940 c-3 -6 4 -14 17 -19 29 -11 35 -6 18 14 -14 17 -26 19
-35 5z"/>
<path d="M4025 5630 c-3 -5 -1 -10 4 -10 6 0 11 5 11 10 0 6 -2 10 -4 10 -3 0
-8 -4 -11 -10z"/>
<path d="M2135 5174 c-73 -11 -226 -56 -289 -84 -38 -17 -100 -58 -137 -90
-38 -33 -105 -85 -150 -116 -95 -67 -114 -90 -100 -127 10 -25 40 -48 71 -54
40 -8 465 -1 535 9 132 18 429 155 511 235 50 48 52 56 25 99 -15 24 -38 38
-114 67 -53 20 -115 41 -139 46 -55 12 -174 20 -213 15z m-70 -59 c-65 -17
-103 -17 -45 0 25 7 56 13 70 13 14 0 3 -6 -25 -13z m212 -7 c-3 -8 -6 -5 -6
6 -1 11 2 17 5 13 3 -3 4 -12 1 -19z m-26 -15 c10 -12 14 -49 14 -138 0 -101
-3 -124 -17 -138 -25 -25 -82 -43 -178 -56 -47 -6 -94 -14 -105 -17 -32 -8
-119 82 -140 145 -28 86 -22 100 70 145 136 67 324 99 356 59z m211 -30 c76
-34 85 -45 56 -73 -43 -40 -171 -121 -187 -118 -13 3 -17 22 -21 108 -3 64 -1
108 5 113 16 12 84 -2 147 -30z m-691 -154 c4 -8 23 -42 44 -76 20 -35 33 -68
29 -74 -12 -20 -264 14 -264 36 0 15 31 43 104 94 61 42 74 45 87 20z"/>
<path d="M2508 5353 c7 -3 16 -2 19 1 4 3 -2 6 -13 5 -11 0 -14 -3 -6 -6z"/>
<path d="M2673 5353 c9 -2 23 -2 30 0 6 3 -1 5 -18 5 -16 0 -22 -2 -12 -5z"/>
<path d="M2765 5331 c-16 -7 -14 -9 14 -14 49 -10 61 -9 61 8 0 18 -21 20 -39
3 -11 -10 -13 -10 -7 0 8 13 1 14 -29 3z"/>
<path d="M4050 5039 c0 -5 5 -7 10 -4 6 3 10 8 10 11 0 2 -4 4 -10 4 -5 0 -10
-5 -10 -11z"/>
<path d="M5693 4384 c-10 -29 -26 -35 -50 -19 -14 9 -24 11 -28 5 -4 -6 -11
-7 -17 -4 -7 5 -8 2 -3 -6 6 -10 4 -12 -10 -6 -15 5 -13 0 7 -26 34 -45 74
-50 88 -11 6 15 16 38 22 50 6 13 8 26 5 29 -4 4 -10 -2 -14 -12z"/>
<path d="M5827 4133 c-13 -12 -7 -40 13 -58 11 -10 17 -21 15 -25 -3 -5 11 -8
30 -8 40 0 43 9 15 48 -11 15 -16 30 -13 34 4 4 0 4 -10 0 -9 -3 -23 -1 -31 5
-7 6 -16 8 -19 4z"/>
<path d="M5780 4126 c0 -2 7 -9 15 -16 9 -7 15 -8 15 -2 0 5 -7 12 -15 16 -8
3 -15 4 -15 2z"/>
<path d="M5760 4077 c0 -13 -9 -32 -20 -42 -11 -10 -20 -24 -20 -30 0 -7 -10
-15 -21 -18 -20 -5 -21 -7 -5 -23 10 -9 15 -25 13 -35 -3 -11 -1 -21 3 -24 5
-3 11 13 15 36 5 27 11 39 20 35 8 -3 16 5 19 20 4 14 18 29 32 34 25 10 25
10 7 40 -21 36 -43 39 -43 7z"/>
<path d="M5530 4030 c0 -5 5 -10 10 -10 6 0 10 5 10 10 0 6 -4 10 -10 10 -5 0
-10 -4 -10 -10z"/>
<path d="M5656 3944 c-9 -24 -7 -28 9 -14 17 14 20 30 6 30 -5 0 -12 -7 -15
-16z"/>
<path d="M4137 4894 c2 -7 11 -10 19 -7 19 7 18 10 -5 16 -13 3 -18 1 -14 -9z"/>
<path d="M505 4279 c-6 -28 -1 -48 10 -37 3 2 8 19 11 36 8 42 -12 43 -21 1z"/>
<path d="M637 4216 c-14 -20 -14 -26 -3 -36 11 -9 16 -5 21 20 9 41 2 47 -18
16z"/>
<path d="M290 3480 c-14 -84 -8 -127 7 -50 20 99 23 120 14 120 -5 0 -14 -31
-21 -70z"/>
<path d="M290 3309 c0 -5 5 -7 10 -4 6 3 10 8 10 11 0 2 -4 4 -10 4 -5 0 -10
-5 -10 -11z"/>
<path d="M997 3015 c-9 -8 -20 -15 -26 -15 -5 0 -17 -14 -25 -32 -15 -29 -15
-33 0 -49 14 -16 18 -16 31 -4 8 8 20 15 28 15 15 0 26 58 12 67 -5 3 -4 9 3
13 8 5 9 10 2 14 -6 3 -17 -1 -25 -9z"/>
<path d="M898 2783 c-26 -6 -22 -20 5 -19 20 1 22 -3 19 -36 -2 -23 1 -38 7
-38 11 0 15 12 12 43 -1 9 2 17 7 17 12 0 24 -29 16 -41 -3 -5 0 -9 5 -9 6 0
11 -7 11 -15 0 -8 -6 -15 -12 -15 -9 0 -8 -3 2 -9 22 -15 32 -2 25 30 -4 18
-3 29 4 29 6 0 11 7 11 15 0 8 -4 15 -10 15 -5 0 -10 9 -10 20 0 11 -4 20 -10
20 -5 0 -10 -7 -10 -15 0 -8 -5 -15 -10 -15 -6 0 -13 7 -16 15 -6 15 -14 17
-46 8z"/>
<path d="M881 2734 c0 -11 3 -14 6 -6 3 7 2 16 -1 19 -3 4 -6 -2 -5 -13z"/>
<path d="M922 2630 c0 -14 2 -19 5 -12 2 6 2 18 0 25 -3 6 -5 1 -5 -13z"/>
<path d="M2110 1806 c0 -2 9 -6 20 -9 11 -3 20 -1 20 4 0 5 -9 9 -20 9 -11 0
-20 -2 -20 -4z"/>
<path d="M2140 1755 c-19 -23 -7 -39 13 -17 10 11 14 23 9 26 -5 3 -15 -1 -22
-9z"/>
<path d="M3495 4650 c-3 -5 -1 -10 4 -10 6 0 11 5 11 10 0 6 -2 10 -4 10 -3 0
-8 -4 -11 -10z"/>
<path d="M3594 4419 c-4 -6 -39 -26 -78 -44 -81 -37 -103 -58 -112 -104 l-7
-33 49 7 c80 12 95 25 74 65 -9 16 -5 22 22 36 29 15 85 53 113 76 5 4 -5 8
-22 8 -18 0 -35 -5 -39 -11z"/>
<path d="M3908 2473 c7 -3 16 -2 19 1 4 3 -2 6 -13 5 -11 0 -14 -3 -6 -6z"/>
<path d="M3850 2455 c12 -15 30 -12 30 6 0 5 -10 9 -21 9 -18 0 -19 -2 -9 -15z"/>
<path d="M3829 2387 c13 -17 12 -18 -15 -11 -28 6 -28 6 -9 -9 25 -20 31 -21
38 -3 3 8 -2 20 -11 28 -15 12 -16 11 -3 -5z"/>
<path d="M5977 423 c-4 -3 -7 -29 -7 -56 0 -63 9 -56 16 12 5 51 3 57 -9 44z"/>
<path d="M4310 875 c-11 -20 -10 -26 3 -39 9 -9 20 -16 26 -16 17 0 13 17 -6
24 -15 6 -15 8 0 19 13 10 13 14 3 24 -11 9 -16 6 -26 -12z"/>
<path d="M3880 382 c0 -5 7 -15 15 -22 8 -7 15 -8 15 -2 0 5 -7 15 -15 22 -8
7 -15 8 -15 2z"/>
<path d="M3890 260 c0 -5 4 -10 9 -10 6 0 13 5 16 10 3 6 -1 10 -9 10 -9 0
-16 -4 -16 -10z"/>
<path d="M1600 529 c0 -5 5 -7 10 -4 6 3 10 8 10 11 0 2 -4 4 -10 4 -5 0 -10
-5 -10 -11z"/>
<path d="M3625 350 c3 -5 8 -10 11 -10 2 0 4 5 4 10 0 6 -5 10 -11 10 -5 0 -7
-4 -4 -10z"/>
<path d="M552 290 c0 -14 2 -19 5 -12 2 6 2 18 0 25 -3 6 -5 1 -5 -13z"/>
</g>
</svg>
